<?xml version="1.0" encoding="UTF-8"?>
<svg id="Ebene_1" data-name="Ebene 1" xmlns="http://www.w3.org/2000/svg" version="1.1" viewBox="0 0 20 20">
  <defs>
    <style>
      .cls-1 {
        fill: #fff;
        fill-rule: evenodd;
        stroke-width: 0px;
      }
    </style>
  </defs>
  <path class="cls-1" d="M10,0c-2.7,0-3,0-4.1,0-1.1,0-1.8.2-2.4.5-.7.2-1.3.6-1.8,1.1-.5.5-.9,1.1-1.1,1.8-.2.6-.4,1.4-.5,2.4,0,1.1,0,1.4,0,4.1s0,3,0,4.1c0,1.1.2,1.8.5,2.4.2.7.6,1.3,1.1,1.8.5.5,1.1.9,1.8,1.1.6.2,1.4.4,2.4.5,1.1,0,1.4,0,4.1,0s3,0,4.1,0c1.1,0,1.8-.2,2.4-.5.7-.2,1.3-.6,1.8-1.1.5-.5.9-1.1,1.1-1.8.2-.6.4-1.4.5-2.4,0-1.1,0-1.4,0-4.1s0-3,0-4.1c0-1.1-.2-1.8-.5-2.4-.2-.7-.6-1.3-1.1-1.8-.5-.5-1.1-.9-1.8-1.1-.6-.2-1.4-.4-2.4-.5-1.1,0-1.4,0-4.1,0ZM10,1.9c2.6,0,3,0,4,0,1,0,1.5.2,1.8.3.5.2.8.4,1.1.7.3.3.6.7.7,1.1.1.3.3.9.3,1.8,0,1,0,1.4,0,4s0,3,0,4c0,1-.2,1.5-.3,1.8-.2.4-.4.8-.7,1.1-.3.3-.7.6-1.1.7-.3.1-.9.3-1.8.3-1,0-1.4,0-4,0s-3,0-4,0c-1,0-1.5-.2-1.8-.3-.4-.2-.8-.4-1.1-.7-.3-.3-.6-.7-.7-1.1-.1-.3-.3-.9-.3-1.8,0-1,0-1.4,0-4s0-3,0-4c0-1,.2-1.5.3-1.8.2-.5.4-.8.7-1.1.3-.3.7-.6,1.1-.7.3-.1.9-.3,1.8-.3,1,0,1.4,0,4,0h0Z"/>
  <path class="cls-1" d="M10,13.3c-.4,0-.9,0-1.3-.3-.4-.2-.8-.4-1.1-.7-.3-.3-.6-.7-.7-1.1-.2-.4-.3-.8-.3-1.3s0-.9.3-1.3c.2-.4.4-.8.7-1.1.3-.3.7-.6,1.1-.7.4-.2.8-.3,1.3-.3.9,0,1.7.3,2.3,1,.6.6,1,1.5,1,2.3s-.3,1.7-1,2.3-1.5,1-2.3,1h0ZM10,4.9c-1.4,0-2.6.5-3.6,1.5-1,1-1.5,2.3-1.5,3.6s.5,2.6,1.5,3.6c1,1,2.3,1.5,3.6,1.5s2.6-.5,3.6-1.5c1-1,1.5-2.3,1.5-3.6s-.5-2.6-1.5-3.6c-1-1-2.3-1.5-3.6-1.5h0ZM16.6,4.8c0,.3-.1.6-.4.9-.2.2-.5.4-.9.4s-.6-.1-.9-.4c-.2-.2-.4-.5-.4-.9s.1-.6.4-.9c.2-.2.5-.4.9-.4s.6.1.9.4c.2.2.4.5.4.9"/>
</svg>