<?xml version="1.0" encoding="UTF-8"?>
<svg id="Ebene_1" data-name="Ebene 1" xmlns="http://www.w3.org/2000/svg" version="1.1" viewBox="0 0 20 20">
  <defs>
    <style>
      .cls-1 {
        fill: #ffffff;
        stroke-width: 0px;
      }
    </style>
  </defs>
  <path class="cls-1" d="M19.9,1.5v16.9c0,.4-.2.8-.4,1-.3.3-.6.4-1,.4H1.5c-.4,0-.8-.2-1-.4-.3-.3-.4-.6-.4-1V1.5C0,1.2.2.8.5.5S1.2,0,1.5,0h16.9c.4,0,.8.2,1,.4.3.3.4.6.4,1h0ZM5.9,7.7h-2.9v9.3h2.9V7.7ZM6.2,4.5c0-.2,0-.4-.1-.6,0-.2-.2-.4-.4-.5-.2-.2-.3-.3-.5-.4-.2,0-.4-.1-.6-.1h0c-.4,0-.9.2-1.2.5-.3.3-.5.7-.5,1.2s.2.9.5,1.2c.3.3.7.5,1.2.5h0c.2,0,.4,0,.6-.1.2,0,.4-.2.6-.4.2-.2.3-.3.4-.5,0-.2.1-.4.1-.6h0ZM17,11.3c0-2.8-1.8-3.9-3.6-3.9-.6,0-1.2,0-1.7.4-.5.3-1,.7-1.3,1.1h0v-1.3h-2.7v9.3h2.9v-5c0-.5.1-1,.4-1.4.3-.4.8-.6,1.3-.7h.1c.9,0,1.6.6,1.6,2.1v5h2.9v-5.7Z"/>
</svg>