<?xml version="1.0" encoding="UTF-8"?>
<svg id="Ebene_1" data-name="Ebene 1" xmlns="http://www.w3.org/2000/svg" version="1.1" viewBox="0 0 19.8 19.8">
  <defs>
    <style>
      .cls-1 {
        fill: #fff;
        stroke-width: 0px;
      }
    </style>
  </defs>
  <path class="cls-1" d="M17.8,5.9v.5c0,5.4-4.1,11.6-11.6,11.6h0c-2.2,0-4.4-.6-6.2-1.8H1c1.8,0,3.6-.6,5.1-1.7-1.7,0-3.3-1.2-3.8-2.8.6.1,1.2,0,1.8,0-1.9-.4-3.3-2.1-3.3-4h0c.6.3,1.2.4,1.8.5C.8,6.8.3,4.4,1.4,2.6c2.1,2.5,5.1,4.1,8.4,4.3-.3-1.4.1-2.9,1.2-3.9,1.6-1.5,4.2-1.5,5.8.2.9-.2,1.8-.5,2.6-1-.3.9-.9,1.7-1.8,2.3.8,0,1.6-.3,2.3-.6-.5.8-1.2,1.5-2,2.1h-.1Z"/>
</svg>