<?xml version="1.0" encoding="UTF-8"?>
<svg id="Ebene_1" data-name="Ebene 1" xmlns="http://www.w3.org/2000/svg" version="1.1" viewBox="0 0 19.8 19.8">
  <defs>
    <style>
      .cls-1 {
        fill: #fff;
        stroke-width: 0px;
      }
    </style>
  </defs>
  <path class="cls-1" d="M16.8,0H3.1C1.4,0,0,1.4,0,3.1v13.8c0,1.6,1.3,3,3,3h13.8c1.6,0,3-1.3,3-3V3.1c0-1.6-1.3-3-3-3h0ZM6.8,12.5h-2.2c-.2,0-.3-.2,0-.4l2.1-3.6h0l-1.4-2.4c0-.2,0-.3.2-.3h2.3v.2l1.5,2.5h0l-2.2,3.9c0,0,0,0-.2,0ZM15.7,3.6l-4.4,7.6,2.9,5c0,.2,0,.4-.2.4h-2.1q-.2,0-.3-.2l-2.9-5.2h0l4.4-7.7c0-.2.2-.2.4-.2h2.1c.2,0,.3,0,.2.3h0Z"/>
</svg>