<svg width="50" height="51" viewBox="0 0 50 51" fill="none" xmlns="http://www.w3.org/2000/svg">
<path d="M42.3965 38.6633L44.5111 37.6894C44.6721 37.6148 44.7762 37.4538 44.7762 37.2771V6.45496C44.7762 6.11921 44.4267 5.89931 44.1243 6.04657L34.0636 10.8963C33.9713 10.9414 33.8673 10.9532 33.7671 10.9296L14.1916 6.53546C14.0974 6.51386 13.9992 6.52368 13.9108 6.56295M13.9108 6.56295L3.27292 11.2163C3.10799 11.289 3 11.4519 3 11.6326V41.7891C3 42.115 3.33379 42.3349 3.63419 42.2053L13.8382 37.7935C13.9285 37.7542 14.0267 37.7463 14.1209 37.7679L34.0224 42.4154C34.1206 42.439 34.2246 42.4272 34.3149 42.386L39.63 39.9375M13.9108 6.56295V37.7679M34.0617 36.0774V42.4154M34.0617 10.8943V20.0891M38.6463 27.9311C38.6463 32.9019 34.6167 36.9315 29.6459 36.9315C24.6751 36.9315 20.6455 32.9019 20.6455 27.9311C20.6455 22.9603 24.6751 18.9307 29.6459 18.9307C34.6167 18.9307 38.6463 22.9603 38.6463 27.9311ZM35.036 35.3374L37.0532 33.3201L46.583 42.8499C47.1397 43.4066 47.1383 44.3104 46.583 44.8658C46.0262 45.4225 45.1224 45.4211 44.5671 44.8658L35.0373 35.3361L35.036 35.3374Z" stroke="url(#paint0_linear_741_6116)" stroke-width="2" stroke-linecap="round" stroke-linejoin="round"/>
<defs>
<linearGradient id="paint0_linear_741_6116" x1="1.4507" y1="23.8558" x2="47" y2="23.8558" gradientUnits="userSpaceOnUse">
<stop stop-color="#EC301C"/>
<stop offset="0.526042" stop-color="#F37920"/>
<stop offset="1" stop-color="#FCAD13"/>
</linearGradient>
</defs>
</svg>
