<svg width="50" height="50" viewBox="0 0 50 50" fill="none" xmlns="http://www.w3.org/2000/svg">
<path d="M30.6988 16.3765L21.1638 9.04026C21.0948 8.98658 20.9989 8.98658 20.9299 9.04026L3.15005 22.7236C2.86059 22.9459 3.01778 23.4099 3.38392 23.4099H6.5891C6.79996 23.4099 6.97249 23.5824 6.97249 23.7932V36.0695C6.97249 36.2804 7.14502 36.4529 7.35588 36.4529H17.1516C17.3625 36.4529 17.535 36.2804 17.535 36.0695V29.132C17.535 28.9211 17.7075 28.7486 17.9184 28.7486H24.1754C24.3862 28.7486 24.5588 28.9211 24.5588 29.132V36.0695C24.5588 36.2804 24.7313 36.4529 24.9422 36.4529H28.3198M37.3488 41.3067V21.1421M37.3488 31.6145L42.099 26.8623M33.7679 23.569L37.205 27.0061M37.3488 16.2366C32.8439 16.3036 28.6956 22.4399 27.6987 29.2911C27.6067 34.8254 32.7768 35.6516 37.3488 35.6574C41.9207 35.6516 47.0908 34.8254 46.9988 29.2911C46.002 22.4379 41.8536 16.3017 37.3488 16.2366Z" stroke="url(#paint0_linear_758_6127)" stroke-width="2" stroke-miterlimit="10" stroke-linecap="round"/>
<defs>
<linearGradient id="paint0_linear_758_6127" x1="1.4507" y1="23.6848" x2="47" y2="23.6848" gradientUnits="userSpaceOnUse">
<stop stop-color="#EC301C"/>
<stop offset="0.526042" stop-color="#F37920"/>
<stop offset="1" stop-color="#FCAD13"/>
</linearGradient>
</defs>
</svg>
