<svg width="50" height="51" viewBox="0 0 50 51" fill="none" xmlns="http://www.w3.org/2000/svg">
<path d="M17.7461 4V11.5677C17.7461 14.6713 16.1931 18.5514 11.7313 18.5514C7.26944 18.5514 7.85122 24.7952 7.85122 27.3972C7.85122 29.9992 5.03623 30.9887 3 30.9887M32.073 4C32.073 4 29.6107 7.48381 30.7468 10.1201C31.4706 11.7991 33.658 15.4478 38.7245 15.0584C43.8254 14.6667 47 16.222 47 16.222M5.75086 4H44.2514C45.7694 4 47 5.23058 47 6.74857V45.2491C47 46.7671 45.7694 47.9977 44.2514 47.9977H5.75086C4.23287 47.9977 3.00229 46.7671 3.00229 45.2491V6.74857C3.00229 5.23058 4.23287 4 5.75086 4ZM39.6705 27.2277C42.7741 33.4899 39.2238 36.0506 38.1175 37.5073C35.2063 41.337 29.1824 37.5073 23.3715 37.5073C18.3279 37.5073 18.9119 30.4298 17.7461 26.1924C16.3878 21.2656 19.2761 17.6604 24.1479 18.3567C30.9392 19.3279 35.2774 18.3681 39.6682 27.2277H39.6705ZM33.9558 28.0614C35.3484 30.8718 35.0094 32.9859 34.5146 33.6387C33.2091 35.3589 29.2397 33.4395 26.6423 32.6744C24.4709 32.0354 23.5089 28.0935 22.9844 26.1924C22.3751 23.9821 24.4663 22.1176 26.6537 22.4314C29.7023 22.8666 31.9859 24.0852 33.9558 28.0614ZM15.806 39.2092C15.806 42.7365 13.3163 43.781 11.4404 43.781C9.5645 43.781 8.46278 42.2143 8.04591 40.3865C7.26944 36.992 8.49943 34.6351 10.373 34.6351C12.2466 34.6351 15.806 34.6351 15.806 39.2069V39.2092Z" stroke="url(#paint0_linear_695_3600)" stroke-width="2" stroke-linecap="round" stroke-linejoin="round"/>
<defs>
<linearGradient id="paint0_linear_695_3600" x1="1.4507" y1="23.9989" x2="47" y2="23.9989" gradientUnits="userSpaceOnUse">
<stop stop-color="#EC301C"/>
<stop offset="0.526042" stop-color="#F37920"/>
<stop offset="1" stop-color="#FCAD13"/>
</linearGradient>
</defs>
</svg>
