<svg width="22" height="20" viewBox="0 0 22 20" fill="none" xmlns="http://www.w3.org/2000/svg">
<path d="M19.0308 19.8348C19.3069 19.8348 19.5308 19.611 19.5308 19.3348C19.5308 19.0587 19.3069 18.8348 19.0308 18.8348V19.8348ZM5.65711 19.3348L5.30378 19.6886C5.39753 19.7823 5.52462 19.8348 5.65711 19.8348V19.3348ZM1.36021 15.0433L1.00665 15.3969L1.00687 15.3971L1.36021 15.0433ZM1.36021 13.3038L1.00669 12.9502L1.00665 12.9503L1.36021 13.3038ZM13.3065 1.36021L13.66 1.7138L13.6601 1.71376L13.3065 1.36021ZM15.046 1.36021L14.6925 1.71376L15.046 1.36021ZM20.6398 6.95399L20.9933 6.60044L20.6398 6.95399ZM20.6398 8.69347L20.9931 9.04732L20.9933 9.04702L20.6398 8.69347ZM9.62767 18.981C9.43224 19.1761 9.43198 19.4927 9.62709 19.6881C9.82219 19.8835 10.1388 19.8838 10.3342 19.6887L9.62767 18.981ZM9.82783 4.83756L17.1611 12.1708L17.8682 11.4637L10.5349 4.13045L9.82783 4.83756ZM19.0308 18.8348H5.65711V19.8348H19.0308V18.8348ZM6.01045 18.9811L1.71354 14.6895L1.00687 15.3971L5.30378 19.6886L6.01045 18.9811ZM1.71376 14.6898C1.42875 14.4048 1.42875 13.9424 1.71376 13.6574L1.00665 12.9503C0.331116 13.6258 0.331116 14.7213 1.00665 15.3969L1.71376 14.6898ZM1.71372 13.6574L13.66 1.7138L12.953 1.00661L1.00669 12.9502L1.71372 13.6574ZM13.6601 1.71376C13.9451 1.42875 14.4074 1.42875 14.6925 1.71376L15.3996 1.00665C14.724 0.331116 13.6285 0.331116 12.953 1.00665L13.6601 1.71376ZM14.6925 1.71376L20.2862 7.30754L20.9933 6.60044L15.3996 1.00665L14.6925 1.71376ZM20.2862 7.30754C20.5713 7.59256 20.5713 8.05491 20.2862 8.33992L20.9933 9.04702C21.6689 8.37149 21.6689 7.27597 20.9933 6.60044L20.2862 7.30754ZM20.2865 8.33963L9.62767 18.981L10.3342 19.6887L20.9931 9.04731L20.2865 8.33963Z" fill="#909090"/>
</svg>
