<svg width="20" height="22" viewBox="0 0 20 22" fill="none" xmlns="http://www.w3.org/2000/svg">
    <path
        d="M14.0942 18.6324C14.6429 19.0463 15.4974 20.7663 14.2377 20.2563C14.0777 19.9306 13.8414 19.9704 13.5511 19.998C12.4736 19.9858 11.5275 21.1494 10.4931 20.6471C10.0692 20.4826 10.0604 20.476 9.78881 20.8303C8.91669 21.5534 7.43849 19.6944 6.59617 20.285C4.20059 21.8382 4.1465 18.3486 5.32994 16.9521C4.57483 16.1562 2.44862 16.8848 2.63077 14.5919C1.84475 14.0267 3.00611 12.8675 2.22562 12.1003C1.57649 11.1862 2.59875 10.2743 2.00924 9.32161C1.87897 8.52455 3.16508 9.10192 3.39802 8.34682C4.13987 7.93063 2.47621 7.31572 3.35165 6.9194C4.0913 6.17644 2.81292 2.86016 5.44144 4.56246C7.29498 2.94406 5.41494 3.25207 6.33785 2.23753C6.71871 1.98583 5.49001 1.02208 6.48026 1C6.98587 1.14572 8.09645 0.809016 8.22561 1.45593C8.19911 2.47599 9.38366 2.05317 9.94115 2.28169C9.43002 4.45096 12.0199 2.29604 12.6922 1.5012C13.3126 0.916099 14.3007 1.6977 13.646 2.51131C14.0589 2.73321 15.2434 2.91095 14.5855 3.52585C15.0768 3.78749 15.2655 4.23348 15.3572 4.74461C14.8151 6.0815 15.8992 6.03845 16.1101 7.17C15.982 8.42078 17.033 9.25427 17.0848 10.3041C16.9181 12.2228 16.035 10.08 14.1494 12.5783C9.04143 13.4383 18.8611 16.3946 14.0953 18.6346L14.0942 18.6324Z"
        stroke="#000000" stroke-linecap="round" stroke-linejoin="round" stroke-width="2"/>
</svg>
