<svg width="22" height="22" viewBox="0 0 22 22" fill="none" xmlns="http://www.w3.org/2000/svg">
    <path
        d="M17.8195 10.9988C17.8195 14.7658 14.7658 17.8195 10.9988 17.8195M17.8195 10.9988C17.8195 7.23187 14.7658 4.17814 10.9988 4.17814M17.8195 10.9988L21 10.9988M10.9988 17.8195C7.23187 17.8195 4.17814 14.7658 4.17814 10.9988M10.9988 17.8195L10.9988 21M4.17814 10.9988C4.17814 7.23187 7.23187 4.17814 10.9988 4.17814M4.17814 10.9988L1 10.9988M10.9988 4.17814L10.9988 1M10.9988 13.8064C12.5494 13.8064 13.8064 12.5494 13.8064 10.9988C13.8064 9.44826 12.5494 8.19128 10.9988 8.19128C9.44826 8.19128 8.19127 9.44826 8.19127 10.9988C8.19127 12.5494 9.44826 13.8064 10.9988 13.8064Z"
        stroke="#000000" stroke-linecap="round" stroke-linejoin="round" stroke-width="2"/>
</svg>