<svg width="22" height="22" viewBox="0 0 22 22" fill="none" xmlns="http://www.w3.org/2000/svg">
<path d="M3.52773 15.74L5.1135 6.22253M15.7026 18.4723H6.18652M16.5163 10.6731L17.8213 15.7962M8.07763 4.60651L13.3131 6.66182M8.2231 3.60262C8.2231 5.04001 7.05787 6.20524 5.62048 6.20524C4.18309 6.20524 3.01786 5.04001 3.01786 3.60262C3.01786 2.16523 4.18309 1 5.62048 1C7.05787 1 8.2231 2.16523 8.2231 3.60262ZM6.20524 18.3974C6.20524 19.8348 5.04001 21 3.60262 21C2.16523 21 1 19.8348 1 18.3974C1 16.96 2.16523 15.7948 3.60262 15.7948C5.04001 15.7948 6.20524 16.96 6.20524 18.3974ZM21 18.3974C21 19.8348 19.8348 21 18.3974 21C16.96 21 15.7948 19.8348 15.7948 18.3974C15.7948 16.96 16.96 15.7948 18.3974 15.7948C19.8348 15.7948 21 16.96 21 18.3974ZM18.1885 8.07043C18.1885 9.50782 17.0233 10.6731 15.5859 10.6731C14.1485 10.6731 12.9833 9.50782 12.9833 8.07043C12.9833 6.63304 14.1485 5.46781 15.5859 5.46781C17.0233 5.46781 18.1885 6.63304 18.1885 8.07043Z" stroke="#909090" stroke-miterlimit="10"/>
</svg>
