<svg width="22" height="22" viewBox="0 0 22 22" fill="none" xmlns="http://www.w3.org/2000/svg">
<path d="M6.22225 3.52777H15.8134M3.52758 15.7403V6.22263M15.7028 18.4726H6.18659M18.473 6.18662V15.8137M6.20533 3.60267C6.20533 5.04008 5.04008 6.20533 3.60267 6.20533C2.16525 6.20533 1 5.04008 1 3.60267C1 2.16525 2.16525 1 3.60267 1C5.04008 1 6.20533 2.16525 6.20533 3.60267ZM21 3.60267C21 5.04008 19.8347 6.20533 18.3973 6.20533C16.9599 6.20533 15.7947 5.04008 15.7947 3.60267C15.7947 2.16525 16.9599 1 18.3973 1C19.8347 1 21 2.16525 21 3.60267ZM6.20533 18.3977C6.20533 19.8351 5.04008 21.0003 3.60267 21.0003C2.16525 21.0003 1 19.8351 1 18.3977C1 16.9603 2.16525 15.795 3.60267 15.795C5.04008 15.795 6.20533 16.9603 6.20533 18.3977ZM21 18.3977C21 19.8351 19.8347 21.0003 18.3973 21.0003C16.9599 21.0003 15.7947 19.8351 15.7947 18.3977C15.7947 16.9603 16.9599 15.795 18.3973 15.795C19.8347 15.795 21 16.9603 21 18.3977Z" stroke="#909090" stroke-miterlimit="10" stroke-linecap="round" stroke-linejoin="round"/>
</svg>
