<svg width="22" height="22" viewBox="0 0 22 22" fill="none" xmlns="http://www.w3.org/2000/svg">
<path d="M4.02522 15.7745H1M5.2819 11H1M4.02522 6.22402H1M6.22459 4.02522V1M11.0004 5.2819V1M15.7751 4.02522V1M21 2.25519C21 1.56231 20.4377 1 19.7448 1H2.25519C1.56231 1 1 1.56231 1 2.25519V19.7433C1 20.4362 1.56231 20.9985 2.25519 20.9985H8.67952C9.3724 20.9985 9.93472 20.4362 9.93472 19.7433V11.1914C9.93472 10.4985 10.497 9.9362 11.1899 9.9362H19.7418C20.4347 9.9362 20.997 9.37389 20.997 8.68101V2.25519H21Z" stroke="#909090" stroke-miterlimit="10" stroke-linecap="round" stroke-linejoin="round"/>
</svg>
