<?xml version="1.0" encoding="utf-8"?>
<!-- Generator: Adobe Illustrator 27.7.0, SVG Export Plug-In . SVG Version: 6.00 Build 0)  -->
<svg version="1.1" id="Ebene_1" xmlns="http://www.w3.org/2000/svg" xmlns:xlink="http://www.w3.org/1999/xlink" x="0px" y="0px"
	 viewBox="0 0 470 90" style="enable-background:new 0 0 470 90;" xml:space="preserve">
<style type="text/css">
	.st0{fill:#EB212E;}
	.st1{fill:#999A9A;}
	.st2{fill-rule:evenodd;clip-rule:evenodd;fill:#EB212E;}
</style>
<g>
	<g>
		<path class="st0" d="M175.8,56.8c-0.2,5.1-1.6,9.6-4.1,13.6c-2.5,3.9-6.1,7-10.6,9.1c-4.6,2.2-9.8,3.2-15.6,3.2
			c-9.7,0-17.3-3.1-22.8-9.4c-5.6-6.3-8.3-15.2-8.3-26.7V43c0-7.2,1.3-13.5,3.8-18.9c2.5-5.4,6.1-9.6,10.8-12.5
			c4.7-2.9,10.2-4.4,16.4-4.4c8.9,0,16.1,2.3,21.5,7c5.4,4.7,8.5,11.2,9.2,19.4h-17.7c-0.1-4.5-1.3-7.7-3.4-9.7
			c-2.1-2-5.4-2.9-9.7-2.9c-4.4,0-7.6,1.7-9.7,5c-2.1,3.3-3.1,8.6-3.2,15.8V47c0,7.8,1,13.5,3,16.8c2,3.4,5.4,5.1,10.2,5.1
			c4.1,0,7.2-1,9.3-2.9c2.2-1.9,3.3-5,3.4-9.1H175.8z"/>
		<path class="st0" d="M198.9,81.8h-17.7V8.2h17.7V81.8z"/>
		<path class="st0" d="M245.1,62.2c0-2.6-0.9-4.6-2.8-6.1c-1.8-1.4-5.1-2.9-9.7-4.5c-4.6-1.5-8.4-3-11.3-4.5
			C211.8,42.5,207,36,207,27.8c0-4.1,1.2-7.7,3.6-10.8c2.4-3.1,5.7-5.5,10.1-7.3c4.3-1.7,9.2-2.6,14.7-2.6c5.3,0,10,0.9,14.2,2.8
			c4.2,1.9,7.5,4.6,9.8,8.1c2.3,3.5,3.5,7.5,3.5,12h-17.7c0-3-0.9-5.3-2.8-7c-1.8-1.7-4.3-2.5-7.5-2.5c-3.2,0-5.7,0.7-7.5,2.1
			c-1.8,1.4-2.8,3.2-2.8,5.3c0,1.9,1,3.6,3,5.1c2,1.5,5.6,3.1,10.7,4.8c5.1,1.6,9.3,3.4,12.5,5.3c7.9,4.6,11.9,10.9,11.9,18.9
			c0,6.4-2.4,11.5-7.3,15.2c-4.9,3.7-11.5,5.5-20,5.5c-6,0-11.4-1.1-16.2-3.2c-4.8-2.1-8.5-5.1-10.9-8.8c-2.4-3.7-3.7-8-3.7-12.9
			h17.8c0,3.9,1,6.8,3.1,8.7c2,1.9,5.3,2.8,9.9,2.8c2.9,0,5.2-0.6,6.9-1.9C244.2,66.3,245.1,64.5,245.1,62.2z"/>
		<path class="st0" d="M307.8,62.2c0-2.6-0.9-4.6-2.8-6.1c-1.8-1.4-5.1-2.9-9.7-4.5c-4.6-1.5-8.4-3-11.3-4.5
			c-9.5-4.7-14.3-11.1-14.3-19.3c0-4.1,1.2-7.7,3.6-10.8c2.4-3.1,5.7-5.5,10.1-7.3c4.3-1.7,9.2-2.6,14.7-2.6c5.3,0,10,0.9,14.2,2.8
			c4.2,1.9,7.5,4.6,9.8,8.1c2.3,3.5,3.5,7.5,3.5,12h-17.7c0-3-0.9-5.3-2.8-7c-1.8-1.7-4.3-2.5-7.5-2.5c-3.2,0-5.7,0.7-7.5,2.1
			c-1.8,1.4-2.8,3.2-2.8,5.3c0,1.9,1,3.6,3,5.1c2,1.5,5.6,3.1,10.7,4.8c5.1,1.6,9.3,3.4,12.5,5.3c7.9,4.6,11.9,10.9,11.9,18.9
			c0,6.4-2.4,11.5-7.3,15.2c-4.9,3.7-11.5,5.5-20,5.5c-6,0-11.4-1.1-16.2-3.2c-4.8-2.1-8.5-5.1-10.9-8.8s-3.7-8-3.7-12.9h17.8
			c0,3.9,1,6.8,3.1,8.7c2,1.9,5.3,2.8,9.9,2.8c2.9,0,5.2-0.6,6.9-1.9C306.9,66.3,307.8,64.5,307.8,62.2z"/>
	</g>
	<g>
		<path class="st1" d="M386.5,16.9h-21.5v65.1h-10.2V16.9h-21V8.1h52.7V16.9z"/>
		<path class="st1" d="M438.4,15.8c6.8,5.2,10.1,14.8,10.1,28.8c0,13.6-3.4,23.3-10.1,28.9c-6.8,5.6-15,8.4-24.6,8.4h-17.7V8.1h15.4
			C422.7,8.1,431.6,10.7,438.4,15.8z M406.3,16v58h8.3c6.9,0,12.4-2.1,16.7-6.4c4.3-4.2,6.4-11.9,6.4-23.1c0-7.8-1.1-13.8-3.3-18.1
			c-2.2-4.2-5-7-8.5-8.4c-3.4-1.4-7.5-2.1-12.1-2.1H406.3z"/>
		<path class="st1" d="M470,81.9h-10.2V8.1H470V81.9z"/>
	</g>
	<path class="st2" d="M45,0C20.1,0,0,20.1,0,45c0,24.9,20.1,45,45,45s45-20.1,45-45C90,20.1,69.9,0,45,0z M29.1,71.4
		c-1.7,0-3-1.3-3-3c0-1.3,1.3-3,3-3c1.8,0,3,1.7,3,3C32.1,70.1,30.8,71.4,29.1,71.4z M62,71.4c-1.8,0-3-1.3-3-3c0-1.3,1.3-3,3-3
		c1.7,0,3,1.7,3,3C65,70.1,63.7,71.4,62,71.4z M75.3,55.8c-10.1,0.4-12.4,1.2-22.7,8c3.5-5.7,12.4-12,18.9-13.5
		c1.9-0.8,1.5-3.4-0.4-2.7c-17,4.2-24.2,13-24.2,37h-2.7c0-24-3.8-28.9-24.2-37c-1.9-0.8-3.4,1.9-1.5,2.7
		c5.7,1.9,15.8,7.3,19.2,13.1c-10.1-6.9-13.1-7.3-23.1-7.7c-2.3,0-4.2,0.4-7.3,0.8V27.8c3.8,2.7,12.7,6.5,17.3,10.1
		c10.4-9.3,30.8-8.8,40.4,0.8l18.1-10.8v28.9C79.9,56.2,77.6,55.8,75.3,55.8z"/>
</g>
</svg>
