<?xml version="1.0" encoding="utf-8"?>
<!-- Generator: Adobe Illustrator 27.9.2, SVG Export Plug-In . SVG Version: 6.00 Build 0)  -->
<svg version="1.1" id="Ebene_1" xmlns="http://www.w3.org/2000/svg" xmlns:xlink="http://www.w3.org/1999/xlink" x="0px" y="0px"
	 viewBox="0 0 80 15.7" style="enable-background:new 0 0 80 15.7;" xml:space="preserve">
<style type="text/css">
	.st0{clip-path:url(#SVGID_00000106124960695361831210000000080638360853595324_);}
	.st1{fill-rule:evenodd;clip-rule:evenodd;fill:#FFFFFF;}
	.st2{fill:#FFFFFF;}
	.st3{fill:#999A9A;}
</style>
<g>
	<defs>
		<rect id="SVGID_1_" x="0" y="0" width="80" height="15.7"/>
	</defs>
	<clipPath id="SVGID_00000168821255008363732050000001531974093154355088_">
		<use xlink:href="#SVGID_1_"  style="overflow:visible;"/>
	</clipPath>
	<g style="clip-path:url(#SVGID_00000168821255008363732050000001531974093154355088_);">
		<path class="st1" d="M8,0C3.6,0,0,3.5,0,7.8c0,4.3,3.6,7.8,8,7.8c4.4,0,8-3.5,8-7.8C16,3.5,12.4,0,8,0z M5.3,12.4
			c-0.2,0-0.4-0.2-0.4-0.4c0-0.2,0.2-0.4,0.4-0.4c0.2,0,0.4,0.2,0.4,0.4C5.7,12.2,5.6,12.4,5.3,12.4z M10.9,12.4
			c-0.2,0-0.4-0.2-0.4-0.4c0-0.2,0.2-0.4,0.4-0.4c0.2,0,0.4,0.2,0.4,0.4C11.3,12.2,11.1,12.4,10.9,12.4z M13.1,9.8
			C11.4,9.8,11,10,9.3,11.2c0.6-1,2.1-2.1,3.2-2.3c0.3-0.1,0.3-0.6-0.1-0.5C9.5,9.1,8,10.6,8.3,14.8H7.8C8,11,7.2,9.8,3.7,8.4
			C3.4,8.2,3.1,8.7,3.5,8.8c1,0.3,2.7,1.3,3.3,2.3C5,9.9,4.5,9.8,2.8,9.8c-0.4,0-0.7,0.1-1.2,0.1v-5C2.2,5.4,3.7,6,4.5,6.6
			C6.3,5,9.7,5.1,11.4,6.8l3.1-1.9v5C13.9,9.8,13.5,9.8,13.1,9.8z"/>
		<path class="st2" d="M29.9,9.9c0,0.9-0.3,1.7-0.7,2.4c-0.4,0.7-1,1.2-1.8,1.6c-0.8,0.4-1.7,0.6-2.7,0.6c-1.6,0-2.9-0.5-3.9-1.6
			c-0.9-1.1-1.4-2.7-1.4-4.7V7.5c0-1.3,0.2-2.4,0.6-3.3c0.4-0.9,1-1.7,1.8-2.2c0.8-0.5,1.7-0.8,2.8-0.8c1.5,0,2.7,0.4,3.7,1.2
			c0.9,0.8,1.4,1.9,1.6,3.4h-3c0-0.8-0.2-1.3-0.6-1.7c-0.4-0.3-0.9-0.5-1.7-0.5c-0.7,0-1.3,0.3-1.7,0.9c-0.4,0.6-0.5,1.5-0.6,2.8
			v0.9c0,1.4,0.2,2.3,0.5,2.9s0.9,0.9,1.7,0.9c0.7,0,1.2-0.2,1.6-0.5c0.4-0.3,0.6-0.9,0.6-1.6L29.9,9.9L29.9,9.9z"/>
		<path class="st2" d="M33.9,14.2h-3V1.4h3V14.2z"/>
		<path class="st2" d="M41.7,10.8c0-0.5-0.2-0.8-0.5-1.1c-0.3-0.2-0.9-0.5-1.6-0.8c-0.8-0.3-1.4-0.5-1.9-0.8
			c-1.6-0.8-2.4-1.9-2.4-3.4c0-0.7,0.2-1.3,0.6-1.9c0.4-0.5,1-1,1.7-1.3c0.7-0.3,1.6-0.5,2.5-0.5s1.7,0.2,2.4,0.5
			c0.7,0.3,1.3,0.8,1.7,1.4c0.4,0.6,0.6,1.3,0.6,2.1h-3c0-0.5-0.2-0.9-0.5-1.2c-0.3-0.3-0.7-0.4-1.3-0.4c-0.5,0-1,0.1-1.3,0.4
			c-0.3,0.2-0.5,0.6-0.5,0.9c0,0.3,0.2,0.6,0.5,0.9c0.3,0.3,0.9,0.5,1.8,0.8c0.9,0.3,1.6,0.6,2.1,0.9c1.4,0.8,2,1.9,2,3.3
			c0,1.1-0.4,2-1.2,2.6c-0.8,0.6-2,1-3.4,1c-1,0-1.9-0.2-2.8-0.6c-0.8-0.4-1.4-0.9-1.9-1.5c-0.4-0.7-0.6-1.4-0.6-2.2h3
			c0,0.7,0.2,1.2,0.5,1.5c0.3,0.3,0.9,0.5,1.7,0.5c0.5,0,0.9-0.1,1.2-0.3C41.6,11.5,41.7,11.2,41.7,10.8L41.7,10.8z"/>
		<path class="st2" d="M52.4,10.8c0-0.5-0.2-0.8-0.5-1.1c-0.3-0.2-0.9-0.5-1.6-0.8c-0.8-0.3-1.4-0.5-1.9-0.8
			c-1.6-0.8-2.4-1.9-2.4-3.4c0-0.7,0.2-1.3,0.6-1.9c0.4-0.5,1-1,1.7-1.3c0.7-0.3,1.6-0.5,2.5-0.5c0.9,0,1.7,0.2,2.4,0.5
			c0.7,0.3,1.3,0.8,1.7,1.4c0.4,0.6,0.6,1.3,0.6,2.1h-3c0-0.5-0.2-0.9-0.5-1.2c-0.3-0.3-0.7-0.4-1.3-0.4s-1,0.1-1.3,0.4
			c-0.3,0.2-0.5,0.6-0.5,0.9c0,0.3,0.2,0.6,0.5,0.9c0.3,0.3,0.9,0.5,1.8,0.8c0.9,0.3,1.6,0.6,2.1,0.9c1.4,0.8,2,1.9,2,3.3
			c0,1.1-0.4,2-1.2,2.6c-0.8,0.6-2,1-3.4,1c-1,0-1.9-0.2-2.8-0.6c-0.8-0.4-1.4-0.9-1.9-1.5c-0.4-0.7-0.6-1.4-0.6-2.2h3
			c0,0.7,0.2,1.2,0.5,1.5c0.3,0.3,0.9,0.5,1.7,0.5c0.5,0,0.9-0.1,1.2-0.3C52.2,11.5,52.4,11.2,52.4,10.8L52.4,10.8z"/>
		<path class="st3" d="M65.8,2.9h-3.7v11.3h-1.7V2.9h-3.6V1.4h9V2.9z"/>
		<path class="st3" d="M74.6,2.7c1.2,0.9,1.7,2.6,1.7,5c0,2.4-0.6,4.1-1.7,5c-1.2,1-2.5,1.5-4.2,1.5h-3V1.4h2.6
			C72,1.4,73.5,1.8,74.6,2.7L74.6,2.7z M69.2,2.8v10.1h1.4c1.2,0,2.1-0.4,2.8-1.1c0.7-0.7,1.1-2.1,1.1-4c0-1.4-0.2-2.4-0.6-3.2
			c-0.4-0.7-0.9-1.2-1.4-1.5c-0.6-0.2-1.3-0.4-2.1-0.4H69.2z"/>
		<path class="st3" d="M80,14.3h-1.7V1.4H80V14.3z"/>
	</g>
</g>
</svg>
