<svg width="287" height="140" viewBox="0 0 287 140" fill="none" xmlns="http://www.w3.org/2000/svg">
    <path
        d="M153.324 97.8758C152.403 98.126 151.494 98.5678 151.027 97.4339C150.089 95.1411 146.842 101.219 144.049 99.881C141.206 100.665 145.104 103.941 143.561 105.359C142.202 106.576 143.682 107.06 144.349 108.152C145.033 111.266 141.081 112.308 138.621 112.1C136.241 112.237 138.455 106.955 136.108 107.802C135.003 108.435 134.265 109.036 132.956 109.432C133.631 107.205 133.848 104.221 130.847 104.129C130.421 104.241 130.25 104.137 130.1 103.779C128.854 98.3928 125.907 101.336 123.514 104.221C123.159 102.662 121.742 101.949 121.029 100.698C119.499 98.3552 117.156 101.807 116.652 103.366C115.351 105.28 112.758 102.57 110.853 103.212C109.794 103.279 109.415 102.87 109.19 101.782C108.11 100.41 110.895 98.1135 109.361 97.9008C107.731 97.6966 106.297 98.8847 104.792 98.9722C103.496 98.547 103.049 100.077 102.228 100.723C101.29 101.894 99.531 100.669 98.8265 102.07C95.6458 104.437 93.5989 101.378 94.2409 107.706C91.8355 108.102 89.7887 105.238 87.5501 106.167C86.6246 106.843 86.2536 107.881 85.4657 106.351C81.8347 98.8221 83.9816 103.912 79 101.298C79.8796 98.1051 82.8269 97.3047 85.1989 95.4705C86.2036 92.0063 81.6722 92.198 82.4934 85.2904C82.9103 79.2583 86.4454 79.5751 88.3255 76.0316C88.6756 75.0645 89.5094 74.4684 90.464 74.1891C92.3024 73.4804 95.8709 70.8457 94.4493 68.728C92.7235 67.7525 90.0221 69.3408 89.7929 66.3477C89.1759 65.3555 87.3333 66.6353 86.2786 66.3685C83.7107 66.035 82.3934 64.5551 84.4194 62.3624C85.8367 60.8449 82.8436 58.5688 84.8529 57.3432C87.3541 55.9383 90.4599 58.2562 91.031 53.8831C92.8736 50.3647 85.7367 44.8036 89.8637 43.6739C95.429 42.5942 94.6119 41.6646 99.7561 45.0037C101.015 45.4915 104.471 46.1168 104.346 44.0491C104.133 42.9777 103.917 41.4645 102.603 41.3019C101.607 41.1018 101.319 40.6015 101.607 39.6511C101.586 34.6986 105.434 37.0414 104.075 32.6101C103.729 30.4757 106.647 33.373 107.468 32.4058C108.265 31.8722 109.065 32.0515 109.807 32.4183C114.53 34.2817 113.246 31.2511 112.708 28.0203C117.098 30.2714 114.405 27.024 116.102 24.9563C117.027 24.331 116.748 22.6885 117.482 22.0798C119.629 22.1632 119.012 25.0813 119.362 26.5404C120.992 28.0912 118.941 31.1927 121.013 32.1348C123.184 31.868 125.119 33.7065 127.061 33.4855C129.096 31.8055 131.243 34.4443 133.285 33.1395C134.236 32.6935 133.327 31.5262 133.31 30.7508C132.948 28.7748 136.333 29.6878 136.253 28.0245C136.032 26.4779 138.354 24.0933 139.588 23.2763C140.126 24.5769 139.392 26.136 140.931 26.9698C141.91 27.7785 143.561 31.2802 144.749 29.0291C144.412 25.8442 147.888 27.8119 145.746 23.8682C148.564 26.2736 152.224 27.4575 151.098 22.2758C150.786 20.3665 148.814 17.4234 152.311 18.0987C153.087 18.5656 153.078 19.7829 154.008 20.2206C154.942 21.2378 153.229 24.5811 155.563 24.1059C158.056 23.3805 156.743 27.1532 159.861 26.728C160.47 26.8114 161.954 26.728 161.324 27.691C160.257 29.6586 159.69 32.0348 157.873 33.473C155.926 35.0321 156.218 37.5042 157.476 39.3593C158.085 40.7266 158.148 42.3107 159.94 42.3357C160.641 43.132 161.624 43.0778 162.521 43.1278C164.126 43.3321 165.397 44.3743 166.902 44.8787C168.67 45.4498 168.607 48.0136 170.537 48.222C172.78 48.1011 172.2 50.669 173.584 51.7571C176.257 53.0119 171.896 58.2728 175.523 56.5761C178.866 55.4964 175.206 60.1488 181.355 58.5063C179.679 64.5218 181.593 63.342 186.182 61.7621C185.991 65.4305 181.668 66.0517 181.468 69.7994C181.43 71.4169 183.81 73.964 180.934 74.4142C178.241 74.0807 180.15 83.3144 182.089 82.9017C181.705 80.9924 183.056 79.7668 183.698 78.1035C183.815 77.6241 184.227 76.9863 184.619 76.8154C185.482 76.8529 186.137 77.9785 186.699 78.5829C187.717 79.9544 189.455 77.6199 190.234 79.5542C190.839 80.4172 191.085 82.0888 192.477 81.6344C196.596 80.2296 193.419 85.2446 195.437 85.6739C203.566 79.0123 198.439 88.9256 208.289 86.0366C210.299 86.3993 207.472 88.392 206.864 88.9923C205.942 90.5764 204.304 89.9094 202.849 90.2345C203.308 92.4982 206.472 93.0401 204.704 95.6539C202.553 98.793 207.247 99.4933 205.146 102.87C202.457 104.225 198.955 103.003 196.396 104.504C195.641 105.575 192.473 107.401 194.491 108.577C195.983 109.486 199.347 109.415 197.93 111.879C196.738 113.68 191.769 110.686 191.66 113.938C191.627 116.506 189.934 118.449 189.534 120.887C189.455 121.946 188.313 121.775 187.633 122.125C185.711 122.784 185.215 119.111 184.194 117.948C183.343 116.027 186.303 116.106 186.866 114.676C187.917 112.758 183.827 112.471 185.453 110.536C185.886 109.69 184.144 109.632 183.752 108.99C182.272 107.764 181.593 111.016 178.091 110.766C178.278 109.594 179.767 108.048 178.141 107.51C176.761 106.576 178.199 105.555 175.244 105.334C173.484 104.783 173.693 107.835 171.725 107.281C168.344 106.768 163.509 107.956 165.235 102.862C163.746 103.191 162.504 104.354 161.241 102.97C160.657 102.357 160.132 102.42 159.665 103.108C158.773 104.588 157.043 104.467 155.613 105.05C153.424 105.776 153.679 99.264 153.341 97.8675L153.324 97.8758Z"
        stroke="black" stroke-opacity="0.8" stroke-width="4" stroke-miterlimit="10" />
</svg>