<svg width="287" height="140" viewBox="0 0 287 140" fill="none" xmlns="http://www.w3.org/2000/svg">
<path d="M206.787 90.5375C204.847 88.9827 206.896 85.5247 206.677 83.2471C207.655 80.1687 203.183 81.0007 202.179 79.0767C203.199 76.5495 200.297 74.1107 200.921 71.4171C202.569 69.5139 204.993 67.5223 203.407 64.8755C203.604 63.2115 205.341 62.1039 203.464 60.8715C201.659 58.2923 198.784 57.3095 196.761 54.9434C194.832 51.085 190.791 48.4538 187.151 46.5038C184.213 45.9942 186.564 44.9906 186.782 43.3786C185.42 37.955 187.754 38.2254 191.67 35.5578C196.236 31.871 193.204 25.7038 196.631 21.653C195.69 19.989 194.905 18.1118 194.998 15.8862C190.526 17.6282 189.902 22.7762 184.364 19.5574C185.94 17.1394 190.074 16.0526 189.06 12.0278C188.826 10.7278 188.774 10.4522 187.37 10.707C186.049 11.0814 184.816 9.20421 183.771 10.7226C182.138 11.1698 179.206 10.0882 177.276 10.551C176.507 9.47981 175.612 7.33741 175.488 5.92821C174.26 4.95061 170.839 4.16021 172.487 6.73941C173.168 8.26821 170.854 7.43101 170.116 7.56101C167.682 7.77941 167.142 10.863 165.186 11.5494C159.851 11.9966 164.9 22.277 153.923 19.0426C151.308 19.8486 152.94 24.5806 149.633 20.4882C148.302 20.353 141.656 30.2798 142.598 24.7262C140.689 24.9862 138.978 25.4178 137.32 24.2894C136.181 23.9826 134.829 25.1318 134.876 23.2962C134.725 21.7934 131.901 22.8074 130.44 21.0082C128.194 20.0618 125.635 20.145 123.456 19.807C121.262 18.2782 119.593 15.959 116.754 15.543C115.053 15.075 115.433 12.4542 113.389 14.1546C112.786 14.7526 112.583 13.5202 112.058 13.6242C111.039 13.9154 109.697 14.2638 109.328 15.4338C107.981 15.9642 108.673 17.6126 107.352 17.9402C106.432 18.7774 105.35 18.9438 104.196 19.2506C103.067 19.9162 102.589 20.8574 101.252 20.7742C101.871 23.2078 99.6248 22.0482 98.1584 22.9426C97.2796 22.0222 96.4372 20.8678 94.9448 21.1382C84.9712 22.4226 94.8356 31.9126 87.4464 28.2258C85.9852 27.451 85.096 28.2414 84.8308 29.7234C83.2188 29.3906 81.5704 29.4114 80 28.9226C81.2948 31.845 83.4788 34.5698 86.6144 32.0322C90.738 35.1158 94.7784 32.9578 93.26 35.771C95.756 35.5162 95.002 36.5354 96.2292 37.8978C98.1064 37.7106 98.8552 36.6238 99.4792 39.2238C100.42 40.2118 101.45 39.203 100.254 41.1062C101.596 42.8118 104.3 43.5762 106.364 44.0962C107.586 44.2886 110.389 42.7962 110.763 44.299C110.602 46.3322 113.056 44.4446 114.034 45.0322C115.49 46.6338 115.677 48.849 113.821 50.1542C114.388 51.7714 114.226 51.4074 113.519 52.7334C114.996 56.1239 116 57.1483 112.552 59.0151C112.552 60.9131 112.089 62.6343 110.961 64.1579C111.45 64.3503 112.926 63.6379 112.261 64.6623C111.912 67.5535 114.85 66.1079 115.438 64.4231C115.984 64.5167 115.979 65.4215 116.374 65.7231C117.695 65.3123 117.768 66.4251 117.253 67.5275C117.086 68.4011 115.901 69.4307 116.062 70.0495C116.826 71.8955 114.96 73.8091 115.339 75.8215C114.622 77.6883 114.07 79.8099 115.953 81.2243C115.734 82.4619 114.148 83.7723 114.18 85.1763C114.674 87.7191 117.107 89.2479 118.537 91.2239C119.634 92.9763 120.3 94.9263 122.245 95.9351C122.775 96.4031 123.373 96.3511 123.883 95.9455C124.855 95.6231 125.651 97.4795 126.722 97.8175C128.646 99.4555 129.795 98.4987 131.605 97.4119C133.836 98.3531 135.806 100.017 138.266 100.459C138.687 103.215 141.734 101.26 143.17 103.147C144.995 106.361 147.886 104 149.503 106.059C150.008 105.373 150.346 104.224 151.406 104.879C151.796 106.039 149.368 107.495 149.124 108.919C149.046 116.563 151.739 112.071 145.998 118.69C146.024 120.292 148 121.311 149.332 121.592C149.945 122.096 149.415 123.131 149.654 123.755C149.893 124.53 151.058 124.759 151.058 125.82C151.547 127.13 149.228 127.156 150.658 128.04C151.245 129.995 149.046 131.597 150.429 133.604C151.313 132.668 151.755 131.384 152.826 132.933C156.393 132.091 160.018 129.366 162.519 133.708C167.495 136.001 174.084 134.54 179.497 134.556C181.327 132.132 182.638 129.496 183.704 126.709C185.508 123.251 190.438 124.327 193.209 125.456C196.865 124.847 200.224 120.552 203.89 123.537C207.135 125.435 207.936 120.105 207.858 117.952C207.769 116.012 205.658 114.671 204.649 113.085C204.457 110.781 203.069 109.174 202.096 107.328C203.63 104.125 206.917 101.676 206.256 97.4639C206.267 94.5623 210.442 91.8999 206.792 90.5219L206.787 90.5375ZM169.913 71.8227C169.102 72.3999 169.435 73.3723 169.206 74.1367C168.748 74.6255 167.849 74.5735 167.646 75.4211C167.984 72.7327 164.183 71.7707 162.259 72.1711C161.042 70.2315 159.066 71.6043 159.378 73.4191C157.782 73.9339 157.449 71.0791 155.78 72.3011C155.14 70.6111 153.668 73.0499 152.639 71.5783C151.209 71.0999 149.404 73.6115 147.959 71.8071C148.344 70.3719 148.089 68.3907 149.597 67.3663C150.741 66.6071 149.659 65.8063 149.55 64.8807C149.42 63.6067 149.956 62.4055 149.446 61.1419C150.195 61.4643 150.798 61.7243 151.516 62.0363C151.183 59.4467 153.512 59.7223 154.448 57.9179C156.684 62.0051 158.114 57.4291 159.7 58.5003C160.335 58.8227 160.47 57.3823 161.026 57.6319C164.578 67.9071 169.19 61.4175 165.868 67.8603C167.906 67.1635 172.368 69.6595 169.913 71.8331V71.8227Z" stroke="black" stroke-opacity="0.8" stroke-width="2"/>
</svg>
