<svg width="287" height="140" viewBox="0 0 287 140" fill="none" xmlns="http://www.w3.org/2000/svg">
    <rect width="287" height="140" fill="white" />
    <path
        d="M144 30.8654H167.992C168.935 30.8654 169.71 30.1038 169.71 29.1517V11.7125C169.71 10.1445 171.653 9.40524 172.698 10.5701L207.562 49.2903C208.146 49.9399 208.146 50.9255 207.562 51.5752L172.698 90.2953C171.653 91.4602 169.71 90.7209 169.71 89.1529V71.7025C169.71 70.7616 168.946 69.9888 167.992 69.9888H120.008C119.065 69.9888 118.29 69.2272 118.29 68.2751V50.8247C118.29 49.2567 116.347 48.5174 115.302 49.6823L80.438 88.4248C79.854 89.0745 79.854 90.0601 80.438 90.7097L115.302 129.43C116.347 130.595 118.29 129.856 118.29 128.287V110.848C118.29 109.907 119.054 109.135 120.008 109.135H144"
        stroke="black" stroke-opacity="0.8" stroke-width="4" stroke-miterlimit="10"
        stroke-linecap="round" />
</svg>