<svg width="287" height="140" viewBox="0 0 287 140" fill="none" xmlns="http://www.w3.org/2000/svg">
<path d="M147.537 14.2793C148.039 14.2793 148.295 14.2546 148.547 14.2793C149.296 14.3729 150.385 13.7816 150.715 14.4271C151.198 15.3584 151.104 16.5607 150.74 17.63C150.533 18.2262 150.163 18.7239 149.626 19.0836C149.261 19.3251 148.887 19.5567 148.552 19.8376C148.345 20.01 147.926 20.1628 148.069 20.4781C148.241 20.8477 148.675 20.6654 148.931 20.557C150.355 19.9706 151.725 19.808 153.115 20.6851C153.617 21.0005 153.977 20.552 154.1 20.1283C154.682 18.1671 156.214 17.699 157.988 17.5364C160.2 17.3294 161.782 16.1517 162.876 14.2645C163.167 13.757 163.433 13.2396 163.714 12.7271C164.152 11.9288 164.788 11.6233 165.719 11.7859C167.129 12.0274 168.479 12.4807 169.854 12.8404C170.504 13.008 170.74 12.9341 170.543 12.1801C170.07 10.352 170.947 8.77028 172.687 8.22332C173.387 8.00158 174.012 8.06071 174.333 8.82448C174.618 9.50448 175.101 9.67695 175.801 9.69173C177.629 9.72622 178.023 10.3274 177.452 12.1013C177.269 12.663 177.279 13.1459 177.708 13.6239C177.945 13.8851 178.107 14.2448 178.211 14.5848C178.427 15.3141 178.211 15.8216 177.368 15.8709C176.594 15.9152 175.845 16.0778 175.136 16.3784C174.801 16.5213 174.456 16.7775 174.569 17.2062C174.683 17.6251 175.101 17.6793 175.466 17.699C175.914 17.7187 176.314 17.5019 176.703 17.3048C177.994 16.6494 179.142 16.7775 180.196 17.8222C180.738 18.3593 181.364 18.8176 181.975 19.2807C183.725 20.6063 184.641 22.3457 184.616 24.5483C184.607 25.381 184.868 26.1251 185.237 26.8495C185.922 28.1898 186.474 29.5744 186.701 31.0674C187.061 33.4425 186.656 35.5564 184.72 37.1973C184.37 37.493 184.143 37.9364 183.863 38.306C183.646 38.5918 183.794 38.784 184.03 38.9367C184.488 39.2324 184.937 39.533 185.464 39.7202C186.923 40.2376 188.051 41.2379 188.948 42.4501C190.047 43.9283 190.16 45.5692 189.253 47.1855C188.83 47.9394 188.834 48.3385 189.667 48.7968C191.377 49.7428 192.111 52.0686 191.249 54.3205C190.692 55.7791 190.746 56.8632 191.904 57.9521C192.446 58.4597 192.57 59.2333 192.343 60.002C192.116 60.7707 192.427 61.293 193.146 61.564C195.014 62.2687 195.6 63.7371 195.516 65.5701C195.432 67.5017 195.25 69.4284 194.95 71.3452C194.802 72.3012 194.294 72.9467 193.437 73.3458C192.308 73.8731 191.446 73.5675 190.919 72.4441C190.702 71.9809 190.539 71.498 190.323 71.0397C190.022 70.3942 189.5 70.0246 188.795 69.9409C188.519 69.9113 188.159 69.8078 188.026 70.1478C187.913 70.4287 188.223 70.5815 188.396 70.7539C189.608 71.9612 189.579 72.1731 187.977 72.927C184.114 74.7452 180.251 76.5586 176.383 78.3571C175.54 78.7513 174.786 79.2342 174.214 79.9783C173.534 80.8653 172.667 81.1806 171.608 80.7568C170.75 80.4119 169.972 80.5105 169.233 81.0426C169.114 81.1264 168.986 81.2299 168.848 81.2496C166.759 81.5108 166.291 83.4029 165.305 84.7679C164.867 85.374 165.029 85.8421 165.724 86.1476C166.389 86.4432 167.065 86.734 167.621 87.2267C168.661 88.1482 168.917 89.045 168.272 90.2424C167.799 91.1195 167.912 91.8044 168.469 92.5583C168.947 93.1989 169.366 93.8888 169.775 94.5786C170.603 95.9731 171.455 97.2838 173.244 97.6633C174.007 97.8259 174.712 98.3925 175.165 99.0578C176.506 101.019 178.674 102.123 180.142 103.951C180.551 104.458 181.246 104.631 181.852 104.892C183.473 105.597 184.626 106.764 185.134 108.484C185.74 110.549 184.656 112.086 182.527 112.145C181.596 112.17 180.896 112.431 180.532 113.348C179.718 115.388 178.181 116.748 176.284 117.733C175.5 118.142 174.771 118.625 174.145 119.241C173.323 120.049 173.367 120.704 174.362 121.247C175.89 122.074 176.594 123.351 176.747 125.041C176.821 125.829 177.107 126.593 177.255 127.381C177.398 128.16 177.265 128.909 176.821 129.584C176.013 130.811 174.855 130.949 173.8 129.939C173.406 129.559 173.007 129.18 172.643 128.776C172.105 128.185 171.46 127.982 170.671 128.096C169.765 128.229 168.853 128.308 167.971 127.943C167.69 127.825 167.365 127.815 167.134 128.017C165.443 129.49 163.3 129.53 161.265 129.835C159.762 130.062 158.52 130.574 157.461 131.737C155.82 133.531 152.725 133.644 150.828 132.112C149.789 131.274 148.591 130.929 147.3 130.791C146.527 130.712 146.147 131.013 146.058 131.787C145.96 132.629 145.704 133.427 145.137 134.088C144.215 135.152 143.092 135.285 141.934 134.487C141.21 133.984 140.544 133.418 140.081 132.649C139.298 131.333 138.076 130.776 136.642 131.033C134.149 131.476 131.941 131.008 129.94 129.461C129.635 129.224 129.226 129.032 128.846 128.983C127.319 128.781 125.855 128.495 124.589 127.505C124.141 127.15 123.599 127.44 123.234 127.869C122.204 129.076 120.859 129.431 119.326 129.485C117.4 129.549 115.488 129.88 113.541 129.835C111.28 129.786 109.629 128.337 109.629 126.041C109.629 123.168 110.373 120.409 111.226 117.689C111.674 116.265 112.181 114.855 112.655 113.436C113.192 111.81 114.079 110.411 115.355 109.258C116.03 108.647 116.7 108.021 117.193 107.237C117.828 106.217 117.523 105.414 116.365 105.06C115.542 104.808 114.699 104.857 113.862 104.887C112.748 104.926 111.768 104.66 110.95 103.877C110.373 103.325 109.673 103.153 108.919 103.345C107.525 103.7 106.229 103.65 104.918 102.921C104.209 102.527 103.317 102.453 102.509 102.226C101.139 101.837 100.05 101.132 99.5916 99.6885C99.4093 99.1169 99.0151 98.6783 98.6603 98.2152C97.5023 96.732 97.3988 95.4902 98.3203 93.8691C98.5519 93.4551 98.8081 93.056 99.0644 92.6569C99.7641 91.5728 99.6852 91.1146 98.6012 90.336C97.9803 89.8925 97.2658 89.5969 96.7139 89.0351C95.4672 87.7638 95.2012 86.2757 96.0881 84.7432C96.5957 83.8612 97.2362 83.0531 97.8522 82.24C98.3942 81.5255 98.4287 80.9096 97.793 80.1951C96.7484 79.0224 95.7925 77.7757 94.7823 76.5734C94.1072 75.7702 93.7919 74.8832 93.9988 73.8386C94.1713 72.9664 93.9496 72.1977 93.4864 71.4438C92.6832 70.1429 92.8556 69.3397 94.1467 68.4823C95.3539 67.6791 96.098 66.531 96.7336 65.2942C97.3693 64.0623 97.2017 62.8009 96.5957 61.6084C96.2014 60.8298 95.7087 60.1006 95.2504 59.3565C94.6985 58.4548 94.4571 57.5481 95.1272 56.5971C95.7875 55.6608 96.7041 55.2863 97.8029 55.513C99.4783 55.8629 101.06 55.5032 102.661 55.0942C103.282 54.9316 103.603 54.6704 103.578 53.9756C103.543 52.9113 104.026 52.0834 104.894 51.4724C105.165 51.2852 105.421 51.0782 105.667 50.8614C106.781 49.8562 106.835 48.8904 105.874 47.7226C105.593 47.3826 105.288 47.0721 104.903 46.8504C104.105 46.3823 103.691 45.6825 103.77 44.7611C103.849 43.8347 104.426 43.1596 105.253 42.8788C107.988 41.9425 108.55 39.5822 108.865 37.2072C109.013 36.0935 108.979 34.9602 109.442 33.9106C109.742 33.2208 109.54 32.797 108.87 32.5358C107.806 32.1219 107.545 31.2941 107.643 30.2396C107.919 27.3274 109.072 26.1005 111.984 25.6471C113.28 25.4451 114.571 25.1889 115.867 25.0016C117.222 24.8045 118.356 25.1938 119.317 26.2286C120.726 27.7463 121.805 27.5984 122.855 25.8344C123.062 25.4895 123.249 25.1347 123.402 24.7651C123.973 23.3903 124.978 22.5822 126.466 22.4689C127.289 22.4048 127.546 22.0205 127.417 21.2518C127.353 20.8576 127.344 20.4486 127.344 20.0494C127.348 18.99 126.935 18.2262 125.91 17.8271C125.313 17.5955 124.85 17.1767 124.55 16.61C123.796 15.1958 124.308 14.023 125.846 13.6338C127.6 13.1903 127.693 13.0425 126.713 11.5199C126.122 10.6033 125.363 9.80014 124.678 8.94767C124.18 8.33666 123.899 7.6468 123.82 6.85839C123.682 5.49839 124.195 4.93665 125.54 5.00563C127.61 5.10911 129.551 5.74969 131.478 6.43462C132.375 6.75491 133.212 6.81897 134.134 6.49375C137.061 5.45897 139.938 7.42999 139.993 10.5393C140.012 11.5445 139.978 12.3083 141.293 12.3772C141.752 12.4019 142.205 12.8109 142.634 13.0868C144.215 14.1019 145.866 14.7868 147.551 14.2941L147.537 14.2793ZM151.799 13.0178C151.375 12.9094 150.73 12.7912 150.114 12.5743C148.823 12.1259 148.522 11.4706 149.02 10.352C149.557 9.13985 150.602 8.71115 151.666 9.2926C152.144 9.55376 152.587 9.87405 153.031 10.1894C153.627 10.6181 153.849 11.1552 153.563 11.8943C153.277 12.6187 152.824 13.0425 151.799 13.0129V13.0178Z" stroke="black" stroke-opacity="0.8" stroke-width="2" stroke-miterlimit="10"/>
</svg>
