<svg width="287" height="140" viewBox="0 0 287 140" fill="none" xmlns="http://www.w3.org/2000/svg">
<path d="M97.8384 64.7801C102.106 64.1148 100.162 60.1592 104.991 59.4211C107.106 56.4011 108.312 51.3124 113.255 50.1688C110.22 48.9733 115.121 46.7538 115.979 42.8086C117.752 42.4032 115.522 40.4487 116.561 39.3416C118.381 36.6699 122.315 38.9621 125.211 38.5671C125.782 38.5983 126.349 40.1577 126.827 39.0713C128.017 38.6347 135.284 41.7014 134.676 38.9881C135.009 36.3476 136.137 33.8006 135.321 31.2225C135.684 26.1753 144.495 26.3052 148.133 27.7607C149.199 30.0581 151.637 28.2804 153.534 27.9842C153.331 27.0849 151.938 26.8406 152.51 25.7335C151.169 25.5827 151.117 25.5411 151.117 24.6627C151.642 24.4912 152.895 25.1201 152.458 24.1689C151.824 22.5212 153.591 20.4524 155.343 20.8163C154.423 19.0646 155.743 18.3057 153.383 17.8327C152.5 16.1849 153.056 15.1557 154.984 15.7379C154.34 12.3333 157.994 11.8031 160.042 13.8718C162.443 15.9354 163.28 12.089 164.611 15.2441C165.401 9.67714 172.47 10.3789 173.634 6.37647C174.851 2.23893 177.886 8.83508 180.225 7.93064C182.159 7.73832 178.567 18.0458 177.767 16.0758C174.715 13.6951 175.521 17.2401 172.891 17.8171C171.836 18.3576 172.839 18.8099 173.151 19.4128C173.712 20.8838 172.641 22.3652 173.432 23.6439C170.708 24.3352 172.714 27.324 168.691 27.6879C169.544 28.7379 170.318 29.8346 171.883 29.2628C171.436 33.1665 177.694 30.8378 176.29 33.0417C189.727 41.296 173.239 42.8554 187.336 45.1788C185.434 45.5375 187.294 50.5379 184.306 48.1261C184.789 50.7978 181.15 50.5119 180.392 52.643C179.581 54.4727 182.46 53.7294 181.649 55.6838C183.006 57.9397 180.781 58.9117 181.488 60.8193C181.421 62.3891 184.212 63.2831 182.939 64.6398C181.145 61.2716 176.836 66.1576 174.799 63.8809C174.648 61.3911 173.172 66.3811 172.013 66.7865C170.833 75.1915 171.217 69.1204 174.112 74.1052C170.427 80.7533 172.039 75.8413 172.558 82.2763C178.24 80.4778 175.376 81.8085 174.7 84.9844C173.447 88.8361 178.858 89.0076 180.641 91.4974C181.546 89.7717 183.5 90.6501 185.761 88.3786C186.561 90.6033 187.419 91.7157 188.755 93.8104C187.939 94.8552 186.51 95.3854 188.126 96.3626C188.391 98.6393 192.05 95.0527 191.474 97.6673C190.605 99.2111 192.695 100.297 192.019 101.919C192.362 103.037 194.478 102.481 194.8 103.671C194.847 105.204 197.363 102.221 196.588 105.345C197.836 105.147 198.917 104.955 198.07 106.545C197.456 108.323 200.695 107.268 198.984 109.082C206.173 111.551 205.856 123.147 209.027 113.303C214.594 114.446 208.148 116.245 209.666 118.511C206.968 123.106 194.488 124.301 193.88 132.441C192.399 137.535 186.229 133.304 182.85 134.141C176.8 136.501 173.026 131.308 170.703 126.427C169.19 123.542 165.687 125.388 163.374 123.839C159.558 120.263 159.215 113.817 153.368 112.559C151.959 112.185 150.722 109.279 149.313 110.277C148.814 111.145 146.855 112.045 147.915 113.11C148.596 113.75 147.53 114.036 147.037 114.524C149.667 114.706 149.241 116.811 146.974 115.86C145.971 115.486 145.966 117.31 144.885 116.884C142.842 114.924 139.895 118.88 143.429 119.421C146.449 120.569 142.057 124.031 140.186 122.856C139.198 122.986 139.177 125.627 138.211 124.182C137.119 123.496 137.322 126.027 136.875 126.609C135.128 125.642 136.09 127.467 135.253 127.649C132.753 129.401 133.101 129.213 133.184 125.757C130.57 125.746 129.151 123.844 126.541 123.168C123.802 122.456 129 126.926 123.459 126.199C121.437 125.674 119.924 131.012 117.492 128.158C117.7 126.666 120.506 125.201 119.55 123.75C118.651 122.144 121.91 121.661 120.439 119.28C120.221 118.423 114.794 107.938 115.387 114.067C113.526 111.676 114.149 115.169 112.647 115.423C110.371 116.006 110.734 120.341 108.364 117.503C108.094 118.215 108.239 118.719 108.52 119.467C104.876 118.308 109.061 122.732 107.444 123.704C102.984 113.199 90.7589 112.024 92.9732 102.288C95.1355 98.4522 91.5801 98.5561 88.6329 100.105C89.2775 96.7888 89.7089 96.9604 86.2991 95.0891C83.2063 94.4186 85.6493 85.868 88.3418 90.0004C88.7733 89.0544 87.427 88.545 87.9468 87.573C85.9664 88.2279 88.0144 85.9616 86.1691 86.1747C86.3666 84.6621 83.5494 81.2367 85.5038 80.7533C91.5697 73.7673 78.7673 76.8653 77 74.4898C79.1155 72.6966 76.6465 67.639 79.599 67.5454C79.5834 65.9393 75.7577 65.4715 80.1187 62.9713C81.096 61.4431 79.1467 59.8369 80.6645 58.1996C80.888 56.2608 82.5514 58.7246 82.8892 57.1756C84.5266 54.0932 81.7665 54.8573 82.2967 53.0849C83.934 50.3404 82.3538 49.6178 85.7741 47.7414C83.7469 51.9257 88.004 54.7586 91.7101 55.3252C92.7964 56.7338 90.7485 56.3128 90.1091 57.0301C91.0759 60.102 95.5461 63.3143 97.8384 64.7801Z" stroke="black" stroke-opacity="0.8" stroke-width="2" stroke-linecap="round" stroke-linejoin="round"/>
</svg>
