<svg width="287" height="140" viewBox="0 0 287 140" fill="none" xmlns="http://www.w3.org/2000/svg">
<path d="M79.0264 63.443C79.4846 63.4826 79.9208 63.2712 80.3834 63.3417C80.6125 63.3769 80.6169 63.2271 80.5465 63.0641C80.5332 63.0288 80.5068 63.0024 80.4892 62.9716C79.7005 61.2841 80.476 60.0549 82.3925 59.9139C83.82 59.8081 85.1462 60.2399 86.4812 60.6408C86.9218 60.773 87.3668 60.8832 87.7941 61.0506C88.27 61.2356 88.596 61.0903 88.8912 60.7113C89.4507 59.9932 89.6798 59.1384 89.649 58.2837C89.5345 55.0938 91.0325 52.5781 92.8785 50.1901C93.3367 49.5953 93.7773 48.9785 94.2972 48.4366C95.1476 47.551 95.4119 46.4936 95.4207 45.3216C95.4472 42.9116 95.7203 40.5324 96.2931 38.1841C96.7116 36.4746 97.3725 34.8797 98.4652 33.483C98.9234 32.897 98.8397 32.5137 98.1524 32.2053C97.3593 31.8528 96.5002 31.8969 95.663 31.8484C94.9493 31.8043 94.2355 31.8352 93.5218 31.7383C92.9666 31.6634 92.7419 31.3726 92.6714 30.8439C92.4952 29.5089 92.7992 28.2532 93.2883 27.0328C93.676 26.0635 94.1298 25.1206 94.5395 24.1645C94.6497 23.9046 94.8171 23.8033 95.0903 23.8077C95.456 23.8121 95.8261 23.8077 96.1917 23.79C96.4561 23.7768 96.6411 23.7063 96.5751 23.3539C96.1917 21.3404 97.421 19.9525 98.9234 19.2564C101.985 17.8377 105.017 17.8421 107.964 19.6089C108.114 19.697 108.251 19.7807 108.422 19.7102C110.722 18.7541 113.15 18.8026 115.573 18.8202C117.261 18.8334 118.944 18.9612 120.622 19.1374C120.953 19.1727 121.072 19.2476 121.006 19.6045C120.569 21.8911 121.239 23.8693 122.662 25.6581C123.059 26.156 123.389 26.7155 123.702 27.2751C124.028 27.8523 123.878 28.1475 123.239 28.3149C123.116 28.3457 122.988 28.403 122.865 28.3986C122.416 28.3898 122.208 28.5087 122.402 29.0154C122.539 29.3723 122.354 29.5221 121.971 29.4384C121.68 29.3767 121.407 29.2798 121.155 29.1256C120.878 28.9581 120.688 29.0419 120.794 29.3503C121.014 29.9847 120.997 30.7866 121.94 30.954C122.402 31.0377 122.671 31.4827 122.962 31.8396C123.345 32.3066 123.737 32.7692 124.107 33.2495C124.297 33.4962 124.473 33.4962 124.707 33.3244C125.231 32.9322 125.654 32.4564 125.936 31.8704C126.302 31.1082 126.562 30.3063 126.786 29.4913C126.892 29.1079 126.777 28.9581 126.39 29.0419C126.103 29.1035 125.821 29.1872 125.539 29.2621C125.138 29.3723 124.87 29.2621 124.724 28.848C124.019 26.8874 125.835 24.7593 127.346 24.495C127.817 24.4113 128.139 24.7329 128.178 25.1779C128.236 25.8344 128.588 26.0943 129.174 26.3058C130.17 26.6671 131.091 27.2134 132.02 27.7333C132.368 27.9316 132.721 28.1166 133.175 28.1607C133.021 26.7993 132.655 25.5127 132.368 24.2174C132.148 23.2085 132.016 22.1951 131.937 21.1729C131.919 20.9615 131.945 20.7632 132.104 20.6134C133.28 19.4767 133.888 17.9831 134.637 16.582C135.373 15.2074 136.197 13.9209 137.651 13.1851C137.7 13.1586 137.708 13.0617 137.739 13C138.034 13 138.325 13 138.62 13C139.092 13.4626 139.369 14.0046 139.422 14.6831C139.444 14.9606 139.717 15.1325 139.942 15.2955C141.039 16.0753 142.286 16.419 143.599 16.5071C145.282 16.6217 146.934 16.4586 148.472 15.6788C149.054 15.3836 149.6 15.6127 150.12 15.7934C151.045 16.1194 151.957 16.4322 152.957 16.2736C153.177 16.2384 153.261 16.3705 153.323 16.5247C153.671 17.3971 154.217 18.1637 154.684 18.9744C155.028 19.5648 155.275 20.1948 155.402 20.8645C155.455 21.1421 155.548 21.3976 155.759 21.5915C157.174 22.8912 157.958 24.5963 158.76 26.2838C159.103 27.0151 159.456 27.7377 159.918 28.403C160.769 29.6146 161.892 30.4121 163.381 30.6103C163.787 30.6632 163.809 30.8439 163.734 31.1655C163.536 31.9894 163.421 32.8177 163.602 33.668C163.897 35.0691 164.897 35.9635 166.333 35.9987C166.88 36.012 167.065 36.2146 167.008 36.7257C166.955 37.228 167.096 37.4747 167.655 37.25C167.898 37.1531 168.127 37.2588 168.312 37.4307C168.642 37.7435 168.867 37.6245 169.109 37.2985C169.382 36.9328 169.51 36.5275 169.598 36.0913C169.722 35.4744 169.752 35.4744 170.285 35.7696C170.889 36.1045 171.4 36.5407 171.797 37.1046C171.872 37.2104 171.951 37.3117 172.026 37.413C173.229 39.0212 173.568 39.193 175.731 38.6158C175.872 38.5762 176.013 38.5365 176.145 38.4749C177.436 37.9021 178.494 38.3383 179.45 39.2239C179.855 39.5984 180.26 39.9729 180.639 40.3694C181.498 41.277 182.538 41.5413 183.745 41.3651C184.776 41.2153 185.807 41.0391 186.86 41.2814C187.667 41.4664 188.226 41.8409 188.363 42.7221C188.42 43.0966 188.557 43.4667 188.706 43.8192C188.927 44.3347 189.112 44.3611 189.504 43.9734C189.711 43.7663 189.914 43.5504 190.121 43.3433C190.319 43.1451 190.548 42.9953 190.808 42.8984C191.539 42.6252 191.98 42.8191 192.297 43.524C192.544 44.0791 192.742 44.6475 192.817 45.2511C192.866 45.6432 193.108 45.8944 193.46 46.0001C194.254 46.238 194.721 46.6874 194.791 47.573C194.844 48.2868 195.342 48.7934 195.87 49.2384C196.32 49.6173 196.787 49.9742 197.227 50.3575C197.756 50.8245 198.206 51.3577 198.391 52.0582C198.488 52.4239 198.699 52.6045 199.06 52.5384C199.955 52.3754 200.461 52.6882 200.752 53.587C201.052 54.5035 201.686 55.2833 201.981 56.2217C202.122 56.6711 202.493 56.7152 202.871 56.5037C203.127 56.3627 203.356 56.1733 203.603 56.0147C204.211 55.6225 204.546 55.6093 205.11 56.0411C205.687 56.4773 206.299 56.8342 206.973 57.0809C207.832 57.3937 208.449 58.0017 209 58.6979V59.1384C208.326 59.3676 207.661 59.6407 206.92 59.5394C206.868 59.5306 206.806 59.5306 206.762 59.5482C206.282 59.7332 206.008 61.2268 206.392 61.5793C206.511 61.6894 206.621 61.7996 206.81 61.9846C205.004 62.3107 203.709 63.606 202.017 64.0246C201.514 64.1479 201.017 64.2449 200.505 64.3021C200.021 64.355 199.585 64.2625 199.144 64.0069C197.686 63.1654 196.047 62.9187 194.417 62.6632C194.236 62.6367 194.051 62.6191 193.875 62.5794C193.478 62.4913 193.174 62.5971 192.905 62.9231C192.416 63.5179 191.971 64.1479 191.385 64.659C191.002 64.9939 190.654 65.0555 190.191 64.8176C189.288 64.3506 188.341 64.2184 187.389 64.6766C186.548 65.082 186.261 65.8398 186.195 66.7078C186.129 67.655 186.446 68.5142 186.882 69.3337C187.054 69.6597 187.323 69.8712 187.728 69.8183C188.125 69.7654 188.2 69.9549 188.125 70.3074C187.935 71.2282 188.178 72.008 188.9 72.6337C189.107 72.8143 189.297 73.0258 189.438 73.2593C189.715 73.7219 190.002 74.0347 190.61 73.7836C190.887 73.6691 191.042 73.8673 191.055 74.1669C191.086 74.7088 190.949 75.2199 190.813 75.7354C190.676 76.2465 190.5 76.7444 190.478 77.2863C190.447 77.9956 190.663 78.542 191.328 78.8636C191.434 78.9165 191.575 78.9517 191.606 79.1147C191.473 79.3042 191.257 79.3615 191.059 79.4452C190.57 79.6567 190.121 79.9386 189.68 80.2382C189.31 80.4894 189.248 80.7361 189.513 81.0974C189.839 81.5424 190.138 82.005 190.46 82.45C190.848 82.9919 191.191 83.547 191.284 84.2256C191.337 84.6441 191.522 84.9217 192.02 84.9349C192.478 84.9481 192.592 85.2565 192.478 85.6751C192.337 86.1994 191.945 86.4946 191.293 86.5739C190.447 86.6708 190.456 86.6708 190.68 87.5079C190.821 88.0366 190.94 88.5742 191.055 89.1117C191.297 90.2748 191.777 91.319 192.522 92.2795C192.222 92.165 191.927 92.0416 191.628 91.9358C191.196 91.786 190.865 91.9843 190.614 92.3059C190.337 92.6628 190.143 93.0814 190.306 93.5308C190.42 93.8568 190.729 93.967 191.077 93.9141C191.293 93.8833 191.5 93.7907 191.888 93.9009C190.927 94.5397 190.649 95.6192 189.843 96.2845C189.495 96.5708 189.094 96.7427 188.627 96.6986C188.244 96.6634 188.231 96.8528 188.372 97.126C188.491 97.3551 188.649 97.5622 188.729 97.8045C188.914 98.3376 188.662 98.7782 188.107 98.7606C185.9 98.6989 183.675 99.2276 181.481 98.5755C181.128 98.4698 180.802 98.5094 180.52 98.7958C179.952 99.3774 179.375 99.9502 178.454 99.8885C178.238 99.8753 178.247 100.051 178.291 100.206C178.714 101.651 178.648 103.193 179.124 104.629C179.212 104.894 179.133 105.114 178.952 105.339C178.547 105.841 178 106.136 177.436 106.409C177.119 106.563 177.04 106.753 177.093 107.105C177.348 108.749 177.916 110.291 178.538 111.82C178.978 112.908 179.353 114.014 179.547 115.181C179.608 115.556 179.533 115.723 179.124 115.732C178.586 115.736 178.128 116.093 177.586 116.129C177.401 116.142 177.379 116.305 177.383 116.463C177.388 116.701 177.383 116.939 177.392 117.177C177.41 117.609 177.494 118.085 176.775 117.768C176.626 117.701 176.48 117.878 176.348 117.975C175.44 118.649 174.489 118.68 173.537 118.076C173.013 117.741 172.515 117.358 171.964 117.067C170.876 116.499 170.184 116.913 170.233 118.142C170.259 118.869 170.043 119.358 169.409 119.724C168.902 120.015 168.457 120.411 167.964 120.728C167.316 121.147 166.615 121.398 165.827 121.261C165.527 121.209 165.289 121.292 165.073 121.491C164.205 122.292 163.055 122.596 162.069 123.187C161.822 123.332 161.566 123.288 161.377 123.055C161.13 122.751 160.866 122.768 160.557 122.953C159.747 123.451 158.909 123.914 158.116 124.438C157.693 124.716 157.376 124.707 157.072 124.315C156.927 124.125 156.795 123.927 156.667 123.724C156.46 123.394 156.35 122.839 155.869 122.949C155.336 123.068 155.504 123.623 155.504 124.028C155.504 124.103 155.521 124.174 155.521 124.249C155.521 124.346 155.499 124.442 155.398 124.473C155.279 124.509 155.266 124.398 155.217 124.319C154.53 123.253 154.138 123.147 153.032 123.782C152.525 124.072 152.036 124.403 151.538 124.711C151.19 124.927 151.164 125.191 151.433 125.482C151.644 125.711 151.873 125.927 152.111 126.125C152.323 126.302 152.715 126.35 152.547 126.764C152.393 127.148 152.168 127.496 151.701 127.535C151.164 127.584 150.648 127.509 150.164 127.236C149.45 126.826 148.758 126.377 148.031 125.989C147.119 125.5 146.723 124.438 146.948 123.434C147.009 123.16 147.185 123.024 147.41 122.931C147.868 122.746 148.327 122.552 148.802 122.425C149.366 122.27 149.494 121.98 149.358 121.42C149.071 120.226 148.816 119.023 148.846 117.781C148.864 117.036 149.027 116.322 149.34 115.653C149.657 114.979 150.133 114.891 150.697 115.38C150.917 115.569 151.111 115.789 151.318 116.001C151.53 115.842 151.433 115.662 151.402 115.49C151.027 113.366 149.084 112.287 147.106 113.124C146.714 113.291 146.635 113.207 146.639 112.811C146.652 112.084 146.604 112.053 145.956 112.357C145.194 112.718 144.41 112.908 143.559 112.824C143.176 112.784 143.136 112.635 143.392 112.401C144.22 111.643 144.242 110.723 144.018 109.714C143.894 109.163 143.863 108.59 143.775 108.026C143.696 107.502 143.899 107.149 144.361 106.903C144.912 106.612 145.441 106.277 145.991 105.991C146.366 105.792 146.56 105.546 146.419 105.109C146.221 104.51 146.392 103.955 146.626 103.404C146.886 102.788 146.846 102.726 146.159 102.739C145.538 102.748 144.912 102.77 144.291 102.814C143.85 102.845 143.736 102.647 143.815 102.254C143.841 102.131 143.846 101.999 143.872 101.876C144.022 101.122 143.797 100.51 143.198 100.021C142.502 99.4523 142.114 98.7429 142.238 97.8089C142.299 97.3419 142.017 97.4344 141.766 97.5533C141.326 97.7604 140.881 97.9102 140.392 97.7208C140.233 97.6591 140.057 97.6106 140.176 97.3771C140.775 96.2052 140.515 95.0156 140.251 93.8304C140.044 92.9095 139.947 91.9843 140.035 91.0459C140.07 90.6537 139.938 90.5127 139.55 90.5304C138.964 90.5568 138.378 90.5216 137.792 90.4334C137.316 90.3585 136.995 90.1383 136.858 89.6404C136.647 88.8605 136.413 88.0939 136.567 87.2656C136.629 86.944 136.726 86.8735 136.981 87.0762C137.277 87.3097 137.678 87.552 137.973 87.3537C138.334 87.1114 138.109 86.64 138.03 86.2743C137.933 85.8249 137.611 85.5077 137.268 85.2257C136.959 84.9657 136.625 84.7366 136.325 84.4635C135.779 83.9612 135.66 83.3928 135.972 82.7231C136.215 82.1944 136.589 81.7274 136.603 81.1018C136.607 80.833 136.854 80.9344 136.986 80.974C137.418 81.0974 137.858 81.0886 138.299 81.0842C139.387 81.0665 139.999 80.5951 140.286 79.5377C140.44 78.9737 140.537 78.3922 140.647 77.815C140.775 77.1453 140.894 76.48 141.242 75.8808C141.453 75.5195 141.295 75.3433 140.938 75.264C140.493 75.1626 140.105 75.286 139.744 75.5371C139.334 75.8235 139.004 76.1936 138.664 76.5549C138.352 76.8897 138.021 77.2114 137.735 77.5683C136.766 78.7799 135.519 78.9429 134.113 78.5596C133.219 78.3129 132.342 77.9251 131.373 78.1807C131.249 78.2115 131.117 78.2291 131.003 78.2776C130.663 78.423 130.492 78.2776 130.39 77.9604C130.201 77.3788 130.086 76.7884 130.139 76.176C130.196 75.5371 130.267 74.8983 130.315 74.2594C130.342 73.9114 130.368 73.5633 130.355 73.2152C130.315 72.0389 130.104 71.8803 129.007 72.2636C127.954 72.6293 126.852 72.6733 125.76 72.8055C125.544 72.8319 125.323 72.876 125.108 72.8892C124.693 72.9112 124.596 73.1139 124.658 73.5104C124.848 74.7132 124.306 75.2552 123.085 75.1847C122.305 75.1362 121.645 74.8102 120.992 74.418C120.834 74.3211 120.649 74.1229 120.451 74.2594C120.27 74.3828 120.314 74.6295 120.318 74.8278C120.336 75.5239 120.728 76.0218 121.222 76.458C121.816 76.9867 122.512 77.3612 123.195 77.7577C123.706 78.0573 123.94 78.4538 123.949 79.053C123.966 80.7802 123.799 82.4588 122.944 84.0053C122.698 84.4503 122.918 84.8292 123.239 85.1332C123.535 85.4151 123.905 85.587 124.306 85.6795C124.636 85.7544 124.663 85.9262 124.526 86.1994C124.31 86.6268 123.993 86.9484 123.548 87.1202C122.949 87.3449 122.336 87.5344 121.737 87.7591C121.125 87.9882 121.076 88.1468 121.358 88.746C121.455 88.9487 121.662 89.1161 121.614 89.3937C121.371 89.4421 121.239 89.2615 121.081 89.1601C120.155 88.583 119.129 88.2393 118.133 87.8208C117.789 87.6754 117.446 87.7899 117.151 88.0102C116.56 88.4508 116.093 88.9751 115.996 89.7417C115.943 90.1471 115.749 90.222 115.349 90.125C113.67 89.7197 111.982 89.5479 110.304 90.1118C109.837 90.2704 109.379 90.4687 108.947 90.7066C108.533 90.9357 108.22 90.8873 107.951 90.5128C107.577 89.9929 107.206 89.4685 106.828 88.9531C106.643 88.6975 106.845 88.5874 107.004 88.4728C107.634 88.0278 108.37 87.8692 109.105 87.7018C109.445 87.6269 109.784 87.552 110.119 87.4551C110.7 87.292 110.894 87.0101 110.824 86.4021C110.731 85.6266 110.339 85.0671 109.577 84.8115C109.092 84.6485 108.594 84.5207 108.083 84.4547C107.894 84.4282 107.621 84.3842 107.823 84.0846C108.304 83.3796 108.299 82.5601 108.422 81.7671C108.489 81.3353 108.563 80.8947 108.687 80.4761C108.867 79.8637 109.255 79.4099 109.885 79.2161C110.123 79.1412 110.308 79.0574 110.229 78.7667C110.026 78.0044 109.828 77.2378 109.326 76.6034C109.105 76.3214 108.863 76.1892 108.471 76.2994C107.026 76.7091 105.682 76.3787 104.404 75.6605C104.025 75.449 103.876 75.1803 103.928 74.7221C104.114 73.1139 103.197 71.9816 101.593 71.7833C101.021 71.7128 100.963 71.7701 101.038 72.3693C101.109 72.9289 101.254 73.4708 101.179 74.0568C101.087 74.7485 100.73 75.1406 100.095 75.3565C98.778 75.8059 97.4739 76.2906 96.2182 76.903C95.4912 77.2598 94.7334 77.6167 94.2443 78.2732C93.5438 79.2161 92.6318 79.2469 91.6361 79.0354C90.7417 78.846 89.8561 78.5992 88.9617 78.4054C88.314 78.2688 87.7148 78.3966 87.239 78.8856C86.979 79.1544 86.7984 79.1059 86.5561 78.8592C85.5427 77.8282 85.4282 76.5593 86.2741 75.3124C86.6045 74.8278 86.9306 74.3343 87.38 73.9466C87.7369 73.6426 87.7721 73.3166 87.5738 72.9201C87.3535 72.4795 87.1553 72.0257 86.9174 71.5895C86.5649 70.9418 86.2477 70.2853 86.2256 69.5275C86.2168 69.2191 86.1375 69.0913 85.8027 69.272C85.1242 69.6421 84.4236 69.5672 83.7231 69.316C82.6172 68.9195 81.5157 68.5362 80.3041 68.6023C79.793 68.6287 79.6609 68.122 79.4538 67.7696C79.2996 67.5096 79.2996 67.1572 79 66.9765V63.4518L79.0264 63.443Z" stroke="black" stroke-opacity="0.8" stroke-width="2" stroke-miterlimit="10"/>
</svg>
