<svg width="287" height="140" viewBox="0 0 287 140" fill="none" xmlns="http://www.w3.org/2000/svg">
<path d="M95.3203 132.725C95.1105 132.446 94.8509 132.186 94.8009 131.816C94.771 131.607 94.7011 131.337 95.0406 131.297C95.3502 131.257 95.6898 130.998 95.9494 131.387C96.1392 131.677 95.9295 132.615 95.6099 132.655C95.1205 132.725 95.2803 133.005 95.3302 133.245C95.4101 133.574 95.4201 133.874 95.1305 134.103L95.0806 134.293C94.8609 134.054 94.6112 133.834 94.4114 133.574C93.7923 132.735 93.193 131.886 92.5838 131.047C92.4141 130.808 92.4041 130.538 92.444 130.278C92.6338 129.08 92.8435 127.882 93.0732 126.693C93.1331 126.394 93.1231 126.114 92.9633 125.884C92.494 125.235 92.0346 124.546 91.4753 123.977C90.7662 123.268 89.9073 122.958 88.8487 123.178C88.2695 123.298 87.6103 123.318 87.2209 122.628C86.8014 121.909 86.3919 121.19 86.0923 120.421C85.8726 119.852 85.9425 119.303 86.362 118.793C86.6416 118.464 86.9113 118.124 87.2408 117.855C87.8201 117.385 88.3594 116.866 88.9086 116.367C89.0684 116.227 89.2382 116.087 89.2482 115.847C89.0385 115.708 88.8387 115.588 88.5791 115.548C87.9199 115.438 87.2708 115.258 86.6716 114.968C86.1822 114.729 85.7328 114.389 85.9325 113.69C85.9925 113.48 85.9026 113.191 85.7927 112.981C85.2434 111.853 84.6742 110.734 83.9951 109.675C83.4757 109.745 82.9664 109.815 82.4471 109.865C81.8679 109.925 81.6881 109.795 81.3885 109.246C81.1688 108.836 81.0589 108.397 80.959 107.948C80.7293 106.919 80.4697 105.9 80.3698 104.842C80.2999 104.033 80.5296 103.304 80.6794 102.545C80.8092 101.896 81.1588 101.486 81.8679 101.376C82.1175 101.336 82.3872 101.316 82.6368 101.246C82.9864 101.157 83.256 100.997 83.316 100.577C83.4258 99.7983 83.3859 99.0093 83.4158 98.2304C83.4358 97.8209 83.246 97.6212 82.8865 97.5113C82.537 97.4015 82.1874 97.2916 81.8279 97.1817C81.2786 97.012 81.0489 96.6624 81.1388 96.0832C81.1688 95.8435 81.2187 95.6038 81.2586 95.3641C81.4184 94.5052 81.4184 94.4952 80.5895 94.3155C79.7306 94.1257 78.8718 94.0858 78.0029 94.2656C77.134 94.4453 76.9243 94.3355 76.7146 93.4466C76.4649 92.388 76.2452 91.3094 76.0455 90.2408C75.8957 89.4319 76.1154 88.9125 76.7146 88.6729C77.194 88.4831 77.6633 88.2234 78.2126 88.1935C78.5422 88.4132 78.6521 88.8027 78.8118 89.1622C79.1214 89.8313 79.3911 89.8613 79.8105 89.2821C79.8904 89.1722 79.9803 89.0624 80.0502 88.9425C80.3998 88.3832 80.7094 87.7641 81.2586 87.3746C82.557 86.4358 83.8852 85.517 85.2334 84.6581C85.6429 84.3985 86.0724 84.0589 86.6116 84.0689C86.9612 84.0689 87.1509 83.9191 87.2908 83.6394C87.101 83.25 86.7914 83.1101 86.372 83.0402C85.9126 82.9603 85.4731 83.0902 85.0237 83.0602C84.7041 83.0402 84.5344 82.9703 84.4345 82.6208C84.2847 82.1114 84.2148 81.6021 84.1748 81.0828C84.075 79.7545 84.2747 78.4962 85.2135 77.4375C85.8027 76.7784 86.352 76.0893 86.8913 75.3802C87.3007 74.8409 87.5704 74.2018 87.9199 73.6225C88.3594 72.9035 88.9086 72.2344 89.5778 71.6951C89.9673 71.3855 90.0871 70.966 89.9373 70.4966C89.7975 70.0872 89.8374 69.6677 89.8175 69.2483C89.7675 68.0199 90.1171 66.8314 90.177 65.613C90.2569 64.085 90.3068 62.567 89.1983 61.2987C88.8088 60.8592 88.609 60.29 88.3294 59.7707C87.88 58.9417 87.2508 58.2526 86.5617 57.6135C86.1423 57.234 86.0224 56.8045 86.2721 56.2652C86.4519 55.8658 86.5917 55.4463 86.7015 55.0269C86.8713 54.4077 86.8813 54.3577 86.372 54.0681C85.9126 53.8084 85.4432 53.5588 84.9838 53.2991C84.6043 53.0894 84.2048 52.8996 84.1748 52.3903C84.1349 51.851 84.075 51.3017 84.085 50.7624C84.0949 50.2032 83.9052 49.8536 83.4158 49.554C82.8266 49.1945 82.497 48.6252 82.4371 47.8962C82.3872 47.297 82.4271 46.7177 82.487 46.1285C82.5669 45.3196 82.7667 44.5506 83.0263 43.7816C83.1662 43.3721 83.4158 43.0026 83.7953 42.8328C84.7141 42.4433 85.3733 41.7342 86.1323 41.145L86.1822 40.9553C86.1822 40.9553 86.1722 41.0352 86.1822 41.0451C86.7914 41.4346 87.3707 41.8741 88.0098 42.1737C88.4193 42.3634 88.8887 42.5931 89.388 42.4333C89.5079 42.2136 89.428 42.0039 89.3381 41.8141C89.1683 41.4846 88.9286 41.185 88.7788 40.8554C88.4992 40.2662 88.5491 40.0764 89.2083 39.9765C90.3667 39.8068 91.4553 39.9166 92.474 40.6057C93.213 41.1051 93.992 41.5545 94.8609 41.8241C95.6698 42.0738 96.4488 42.4533 97.2078 42.8328C97.4475 42.9526 97.6672 43.0325 97.9269 43.0126L98.0966 43.3022C97.8769 42.8628 98.0267 42.3734 97.9368 41.914C97.797 41.2249 97.9868 41.0651 98.6459 41.2948C98.7258 41.3248 98.8057 41.3547 98.8856 41.3947C99.4648 41.6843 100.034 41.9739 100.613 42.2536C100.933 42.4133 101.213 42.4433 101.582 42.2236C102.311 41.7842 103.09 41.4246 103.869 41.0851C105.507 40.366 107.195 39.7868 108.883 39.2175C109.312 39.0677 109.572 39.1276 109.791 39.4372C110.051 39.7868 110.421 39.9865 110.73 40.2562C111.349 39.8767 111.859 39.4073 112.378 38.9379C112.927 38.4485 113.447 37.9292 113.876 37.32C114.455 36.4911 114.425 35.8519 113.726 35.1229C113.596 34.9831 113.437 34.8632 113.297 34.7334C112.328 33.8346 111.19 33.2354 109.941 32.8259C109.642 32.726 109.392 32.5762 109.322 32.2466C109.122 31.2979 109.811 30.1094 110.76 29.8598C111.229 29.7399 111.549 29.4902 111.719 29.0408C111.829 28.7213 111.949 28.4017 112.048 28.0821C112.238 27.4729 112.608 27.2132 113.197 27.373C113.656 27.5028 114.126 27.5128 114.585 27.5028C115.504 27.4829 116.073 27.2332 116.363 26.2645C116.682 25.1959 117.421 24.5068 118.47 24.1572C119.129 23.9375 119.628 23.528 119.998 22.9588C120.218 22.6292 120.427 22.2997 120.617 21.9501C120.927 21.4008 121.386 21.1412 122.005 21.1911C122.535 21.231 123.004 21.0613 123.433 20.7916C123.653 20.6518 123.893 20.5619 124.113 20.5819C124.732 20.6218 125.161 20.3322 125.551 19.9028C125.81 19.6132 126.13 19.4334 126.549 19.4134C127.908 19.3535 129.266 19.3435 130.624 19.3835C131.892 19.4234 132.991 18.994 134.02 18.3248C134.589 17.9553 135.138 17.5159 135.747 17.2463C136.446 16.9466 137.136 16.707 137.515 15.9879C137.595 15.8381 137.745 15.7083 137.895 15.6084C138.514 15.1889 139.133 14.7595 139.762 14.36C140.341 14.0005 140.951 13.6609 141.63 13.611C142.189 13.5711 142.499 13.2715 142.768 12.872C142.898 12.6722 142.978 12.4425 143.078 12.2128C143.288 11.6935 143.268 11.2541 142.828 10.8646C142.678 10.7348 142.539 10.585 142.399 10.4352C142.259 10.2953 142.269 10.1056 142.359 9.95579C142.728 9.35658 143.098 8.75736 143.507 8.1881C143.987 7.53895 144.226 7.48902 144.985 7.75867C145.614 7.98836 146.224 8.28797 146.803 8.61754C147.242 8.86722 147.512 9.23673 147.642 9.72609C147.692 9.91584 147.732 10.1056 147.762 10.2953C147.931 11.334 148.461 12.1329 149.39 12.6423C149.879 12.9119 150.388 13.1416 150.868 13.4113C151.647 13.8507 152.456 13.9206 153.314 13.6909C154.603 13.3514 155.811 13.8207 156.36 15.0391C156.86 16.1377 157.409 17.2063 158.098 18.185C158.228 18.3748 158.298 18.5745 158.288 18.8042L158.428 18.9041C157.868 18.8242 157.309 18.7143 156.75 18.6744C156.251 18.6344 156.101 18.8641 156.281 19.3335C156.4 19.6531 156.59 19.9527 156.64 20.3322C156.57 20.4121 156.47 20.522 156.37 20.6218C155.931 21.0912 155.771 21.6605 155.741 22.2996C155.721 22.769 155.512 23.1885 155.272 23.598C154.693 24.5567 155.072 24.8763 155.901 25.3057C156.201 25.4555 156.56 25.5254 156.9 25.5454C157.399 25.5754 157.848 25.7751 158.338 25.845C158.607 25.885 158.677 26.1147 158.677 26.3643C158.677 27.3431 158.498 28.3118 158.378 29.2805C158.338 29.6001 158.078 29.7899 157.759 29.8498C156.6 30.1094 155.711 30.9483 154.603 31.3179C154.433 31.3778 154.393 31.5675 154.513 31.7673C154.952 32.5363 155.561 33.1654 156.34 33.5649C156.64 33.7147 157.05 33.6748 157.339 33.3452C157.649 32.9957 157.998 32.6861 158.388 32.4264C159.137 31.9271 159.926 32.0169 160.685 32.3465C161.084 32.5163 161.444 32.5263 161.793 32.3265C162.313 32.0369 162.872 32.0169 163.421 32.0569C164.07 32.0968 164.48 31.8472 164.829 31.2879C165.399 30.3691 166.248 29.67 167.076 28.9909C167.805 28.3917 168.654 28.5415 169.463 28.8011C170.222 29.0408 170.991 29.2905 171.67 29.7399C171.79 29.8198 171.98 29.8098 172.14 29.8398L172.19 30.0295C172.24 29.67 172.559 29.4104 172.549 29.0209C172.549 28.7213 172.689 28.4816 172.909 28.3018C173.218 28.0421 173.548 27.8124 173.898 27.6127C174.417 27.3231 174.986 27.0934 175.445 26.6739C175.795 26.3543 175.845 26.1346 175.535 25.8151C175.146 25.4156 174.736 25.0061 174.287 24.6765C173.858 24.357 173.838 24.0174 173.977 23.558C174.477 21.9201 174.726 20.2523 174.627 18.5346C174.587 17.7256 174.417 16.9467 174.147 16.1876C173.818 15.2688 173.039 14.7995 172.28 14.3301C171.561 13.8906 170.782 13.5611 170.073 13.0817C169.683 12.822 169.343 12.5025 169.234 12.063C169.044 11.314 168.954 10.535 168.844 9.76604C168.804 9.46643 169.024 9.25671 169.313 9.3366C170.572 9.68614 171.86 9.69613 173.148 9.66617C173.888 9.65618 174.397 9.30664 174.607 8.60756C174.886 7.66878 175.346 6.85984 176.224 6.37048C176.534 6.2007 176.854 6.0509 177.273 6.2007C178.352 6.58021 179.4 6.47035 180.379 5.84117C180.709 5.63145 181.078 5.48164 181.428 5.31186C182.316 4.86245 182.317 4.86245 183.006 5.55155C183.675 6.21069 184.234 6.94972 184.384 7.89848C184.494 8.63752 184.544 9.39652 184.584 10.1455C184.623 10.8646 184.703 11.5937 184.613 12.2927C184.504 13.1516 184.683 13.5311 185.732 13.3713C185.912 13.3414 186.102 13.3214 186.251 13.2515C186.591 13.0717 186.93 13.0617 187.31 13.1117C188.249 13.2315 189.158 13.5811 190.136 13.2715C191.345 12.892 192.503 12.5424 193.272 11.364C194.051 10.1455 194.89 8.9571 195.829 7.85853C196.158 7.46904 196.548 7.12949 197.077 7.15945C198.076 7.21937 198.955 7.63882 199.654 8.34789C199.874 8.57759 199.923 8.85723 199.774 9.20677C199.614 9.5663 199.414 9.88588 199.184 10.2055C198.865 10.6549 198.855 11.1642 199.085 11.6636C199.174 11.8633 199.294 12.0431 199.364 12.2428C199.544 12.7022 199.554 13.1616 199.324 13.601C198.925 14.35 198.585 15.129 198.136 15.8581C197.567 16.7669 196.877 17.5059 195.779 17.7356C195.27 17.8455 194.95 18.1251 194.77 18.6245C194.481 19.3935 194.221 20.1724 194.021 20.9714C193.981 21.1212 193.921 21.1112 193.821 21.1112L194.011 21.1611C194.78 21.5606 195.549 21.9501 196.308 22.3596C196.688 22.5693 197.027 22.8389 197.317 23.1685C197.527 23.4182 197.557 23.7078 197.317 23.9275C196.748 24.4369 196.628 25.096 196.548 25.7951C196.518 26.0248 196.458 26.2545 196.358 26.4642C196.248 26.6939 195.999 26.644 195.789 26.6639C195.629 26.6739 195.549 26.7838 195.489 26.9436C195.369 27.2632 195.389 27.5827 195.449 27.9023C195.509 28.2119 195.749 28.2319 195.979 28.2319C196.478 28.2419 196.967 28.2119 197.467 28.2419C198.156 28.2918 198.845 28.3817 199.484 28.7113C200.163 29.0708 200.463 29.65 200.533 30.3891C200.593 30.9483 200.812 31.4577 201.112 31.9171C201.541 32.5562 201.771 33.1954 201.501 33.9844C201.312 34.5436 201.412 35.1329 201.511 35.7021C201.651 36.4511 201.711 37.2002 201.541 37.9492C201.501 38.119 201.501 38.3087 201.581 38.4785L201.441 38.5784C202.22 38.5184 203.009 38.4286 203.788 38.3986C204.388 38.3786 205.197 39.1376 205.266 39.7269C205.286 39.9066 205.237 40.0764 205.077 40.2062C204.867 40.386 204.677 40.5658 204.468 40.7555C204.697 41.3148 205.107 41.5645 205.646 41.6444C206.575 41.7742 207.064 42.2935 207.134 43.2223C207.154 43.5419 207.174 43.8615 207.184 44.181C207.194 44.7103 207.394 44.94 207.903 45.0898C208.802 45.3695 209.721 45.2596 210.629 45.2796C211.329 45.2896 211.538 45.6591 211.259 46.3382C211.129 46.6478 210.919 46.9075 210.759 47.1871C210.43 47.7364 210.45 48.2957 210.689 48.815C211.189 49.8536 210.949 49.594 210.43 50.343C210.21 50.6626 209.89 50.9222 209.621 51.2118C209.121 51.7511 208.892 52.3903 208.902 53.1293C208.912 54.4975 208.822 55.8558 208.562 57.194C208.492 57.5336 208.592 57.6834 208.952 57.6734C209.331 57.6734 209.721 57.7233 210.1 57.7133C210.43 57.7034 210.659 57.8232 210.819 58.1028C210.989 58.3925 210.789 58.6421 210.659 58.8119C210.18 59.4511 209.511 59.7707 208.712 59.8306C208.312 59.8605 207.923 59.8406 207.553 60.0603C207.304 60.2101 207.164 60.4498 207.334 60.6295C208.043 61.4085 207.703 62.1076 207.224 62.7867C206.705 63.5158 206.285 64.3147 205.816 65.0737C205.286 65.9226 204.547 66.6317 203.679 67.131C203.249 67.3807 202.88 67.6503 202.64 68.0598C202.39 68.5092 202.051 68.8388 201.581 69.0086C201.102 69.1883 200.712 69.5379 200.403 69.8874C199.774 70.6165 199.035 70.5865 198.226 70.3968C198.086 70.3668 197.936 70.3568 197.796 70.3468C196.867 70.2769 196.268 69.448 196.508 68.5292C196.578 68.2595 196.668 67.9899 196.748 67.7203C196.897 67.2209 196.718 66.8714 196.218 66.7715C195.489 66.6217 194.76 66.5018 194.021 66.6217C193.092 66.7715 192.204 67.0012 191.385 67.4806C190.905 67.7602 190.755 68.1197 190.845 68.679C190.975 69.4979 191.275 70.197 191.964 70.6764C192.154 70.8062 192.254 70.966 192.293 71.1658C192.423 71.9148 192.333 72.6338 191.874 73.273C191.694 73.5227 191.455 73.6126 191.155 73.6126C190.306 73.6126 189.457 73.5127 188.618 73.4228C187.63 73.3229 186.671 73.5327 185.752 73.8722C184.823 74.2218 183.904 74.5513 182.876 74.3815C182.526 74.3216 182.217 74.5413 182.077 74.8509C181.747 75.59 181.148 75.9994 180.509 76.4488C179.58 77.098 178.851 77.9868 178.232 78.9556C178.082 79.1853 177.952 79.405 177.902 79.6746H177.762C177.862 79.6746 177.912 79.7046 177.962 79.8144C178.322 80.5735 178.901 80.893 179.53 80.7233C179.74 80.6633 179.95 80.6134 180.149 80.5335C180.998 80.164 181.857 79.8344 182.736 79.5348C183.265 79.355 183.595 79.415 183.775 79.7745C183.974 80.154 184.184 80.5535 184.174 81.0129C184.174 81.3524 184.204 81.682 184.264 82.0216C184.414 82.8305 185.043 83.3898 185.412 84.0789L185.273 84.1288C185.033 84.6881 184.713 85.2274 184.584 85.8066C184.484 86.236 184.344 86.6156 184.074 86.9451C183.785 87.2947 183.485 87.6242 183.165 87.9538C182.926 88.2035 182.786 88.4731 182.786 88.8227L182.546 88.8726C182.936 88.8127 183.135 89.0923 183.245 89.362C183.355 89.6216 183.095 89.7914 182.876 89.9312C181.687 90.6902 180.419 90.9599 178.991 90.7801C178.202 90.6802 177.373 90.4705 176.544 90.7801C176.105 90.9399 175.985 91.1896 175.975 91.609C175.935 92.6377 176.115 93.6364 176.334 94.6151C176.454 95.1644 176.364 95.5638 175.985 95.9633C175.066 96.9221 174.197 97.9208 173.588 99.1192C173.338 99.6086 173.168 100.148 172.939 100.637C172.639 101.296 172.08 101.766 171.481 102.185C171.051 102.475 170.732 102.874 170.572 103.374C170.412 103.873 170.053 104.163 169.563 104.302C168.844 104.512 168.095 104.512 167.366 104.392C167.036 104.342 166.827 104.103 166.647 103.843C166.427 103.543 166.218 103.553 165.928 103.793C165.189 104.412 164.6 105.181 163.931 105.86C163.172 106.629 162.512 107.508 161.624 108.147C161.074 108.547 161.454 108.986 161.544 109.396C161.644 109.815 161.793 110.245 161.973 110.634C162.393 111.563 162.143 112.372 161.673 113.181C161.404 113.64 161.124 114.08 160.765 114.479C160.635 114.629 160.305 114.479 160.325 114.809L160.275 114.639C159.976 114.639 159.826 114.389 159.666 114.219C159.177 113.72 158.707 113.62 158.068 113.98C157.489 114.299 157.089 114.17 156.89 113.7C156.78 113.43 156.75 113.131 156.69 112.841C156.53 112.082 156.151 111.443 155.631 110.884C155.112 110.335 154.693 109.725 154.343 109.056C154.043 108.477 154.133 107.838 154.223 107.239C154.303 106.719 154.353 106.22 154.333 105.701C154.323 105.301 154.123 105.121 153.714 105.131C152.905 105.161 152.306 104.812 151.846 104.173C151.457 103.623 150.898 103.314 150.268 103.114C150.019 103.034 149.759 102.964 149.559 102.824C149.19 102.575 149.11 102.055 149.33 101.496C149.37 101.386 149.43 101.266 149.479 101.157C149.859 100.218 149.659 99.7783 148.69 99.4388C148.491 99.3689 148.311 99.3889 148.111 99.4787C147.712 99.6585 147.372 99.8982 147.063 100.198C146.873 100.378 146.823 100.577 146.923 100.827C147.282 101.756 147.162 102.705 147.043 103.653C147.023 103.783 147.023 103.913 147.023 104.033C147.023 104.422 146.883 104.692 146.443 104.752C145.984 104.822 145.605 105.061 145.295 105.411C145.055 105.681 144.796 105.91 144.436 106.04C144.116 106.16 143.987 106.45 144.007 106.799C144.037 107.338 143.897 107.818 143.427 108.127C143.198 108.277 143.168 108.507 143.108 108.717C142.948 109.236 142.868 109.326 142.329 109.336C142.009 109.336 141.69 109.336 141.37 109.336C140.911 109.346 140.791 109.466 140.751 109.905C140.691 110.624 140.461 110.884 139.742 110.854C138.873 110.814 138.094 111.044 137.345 111.443C136.087 112.112 134.759 112.432 133.321 112.262C132.931 112.212 132.522 112.262 132.152 112.262C131.872 112.731 131.952 113.261 131.952 113.75C131.952 114.998 131.383 115.837 130.305 116.377C129.056 116.996 127.748 117.425 126.33 117.275C125.631 117.196 125.041 117.335 124.512 117.775C124.332 117.925 124.113 118.024 123.943 118.164C123.473 118.554 122.914 118.664 122.345 118.764C121.955 118.823 121.616 118.963 121.296 119.163C120.787 119.473 120.767 119.473 120.338 119.063C120.278 119.003 120.208 118.933 120.148 118.873C119.888 118.604 119.658 118.574 119.329 118.813C118.79 119.203 118.41 119.752 117.851 120.122C117.252 120.521 116.652 120.891 115.883 120.841C115.374 120.801 115.274 121.23 115.234 121.56C115.174 122.009 114.955 122.289 114.585 122.459C114.166 122.648 113.726 122.788 113.297 122.948H113.636C113.856 123.457 114.076 123.937 114.086 124.526C114.106 125.385 113.776 125.954 113.017 126.294C112.997 126.294 112.987 126.334 112.967 126.344C111.839 126.993 111.639 127.083 110.57 126.014C110.181 125.625 109.751 125.245 109.232 125.005C109.012 124.905 108.793 124.846 108.563 125.005C108.283 125.185 108.433 125.455 108.483 125.625C108.593 125.994 108.603 126.314 108.373 126.633C108.223 126.853 108.243 127.043 108.453 127.262C108.823 127.632 108.962 128.101 109.002 128.641C109.062 129.519 109.122 130.408 109.652 131.187C110.021 131.737 109.901 132.026 109.272 132.226C108.783 132.386 108.283 132.486 107.794 132.615C107.355 132.725 106.925 132.855 106.546 133.135C106.346 133.285 106.116 133.394 105.876 133.474C105.477 133.614 105.177 133.424 105.008 133.005C104.938 132.815 104.888 132.625 104.878 132.426C104.868 132.106 104.698 131.936 104.408 131.836C103.899 132.056 103.679 132.715 103.05 132.755V132.895C103.05 132.815 103.05 132.725 102.95 132.705C102.521 132.595 102.431 132.276 102.421 131.886C102.411 131.097 102.221 130.888 101.462 131.037C100.284 131.277 99.0853 131.477 98.2464 132.496C97.8869 132.935 97.3676 133.145 96.7684 133.135C96.319 133.135 95.9594 132.995 95.7597 132.555" stroke="black" stroke-opacity="0.8" stroke-width="2" stroke-linecap="round" stroke-linejoin="round"/>
</svg>
