<svg width="287" height="140" viewBox="0 0 287 140" fill="none" xmlns="http://www.w3.org/2000/svg">
<path d="M167.004 6C167.4 6.29224 167.777 6.60334 168.051 7.01813C168.239 7.31037 168.466 7.65917 168.833 7.67803C170.238 7.74402 169.531 8.40392 169.239 8.97897C168.927 9.59173 168.051 10.1102 168.258 10.7324C168.475 11.3923 169.484 11.2415 170.134 11.4394C170.785 11.6374 171.303 11.9674 171.492 12.6273C171.68 13.2683 172.038 13.2212 172.519 13.0138C172.962 12.8347 173.49 12.5047 173.886 12.9384C174.254 13.3343 174.188 13.9282 174.028 14.4467C173.924 14.7766 173.773 15.0972 173.632 15.4177C173.094 16.5961 173.226 17.5577 174.122 18.5004C174.584 18.9811 175.102 19.4054 175.602 19.839C176.205 20.3575 176.724 20.942 176.78 21.7621C176.827 22.4409 177.186 22.5352 177.742 22.5069C178.336 22.4692 178.93 22.5069 179.533 22.5069C180.033 22.5069 180.127 22.6766 179.948 23.1479C179.269 24.9485 179.137 26.6925 180.551 28.2669C180.843 28.5874 180.674 29.0022 180.589 29.3793C180.249 30.8499 179.118 31.8303 178.289 32.9804C177.902 33.5083 177.252 32.9521 176.809 32.6693C175.555 31.8492 175.526 31.8586 174.489 32.9993C173.688 33.8854 173.283 34.7339 173.801 35.9971C174.386 37.4206 174.395 38.9572 173.679 40.3901C173.415 40.9086 173.66 41.1537 173.98 41.4554C175.074 42.4924 176.196 43.5011 177.223 44.6041C178.76 46.2444 179.505 48.1958 179.156 50.4772C179.062 51.1276 178.864 51.401 178.147 51.0711C177.346 50.7034 176.554 50.2226 175.31 50.3263C177.27 51.8064 176.431 52.9282 175.036 53.9181C173.349 52.7868 171.492 53.0602 170.191 54.7099C169.748 55.2756 170.172 57.1421 170.86 57.3212C171.341 57.4438 171.388 57.6889 171.369 58.066C171.331 59.0276 170.492 59.6215 170.172 60.4699C170.04 60.8281 169.239 60.5265 168.833 60.2908C168.041 59.8289 167.598 59.9231 167.183 60.8187C166.674 61.9311 166.326 62.1574 164.921 62.9775C165.647 63.694 166.373 64.4104 167.089 65.1175C167.994 66.0131 168.645 67.0406 168.484 68.3793C168.409 69.0203 168.682 69.1617 169.248 69.1429C171.115 69.0674 172.821 68.4924 174.433 67.6062C176.234 66.607 177.959 65.4474 180.061 65.0892C181.296 64.8818 182.503 64.9949 183.709 65.2589C184.011 65.3249 184.313 65.4003 184.445 65.768C184.897 67.0595 185.896 67.9833 186.735 69.0109C187.112 69.4728 187.48 69.9442 187.791 70.4532C188.329 71.3205 188.583 72.2067 187.999 73.2059C187.725 73.6773 187.546 74.2429 187.452 74.7897C187.273 75.8173 187.131 76.7694 188.244 77.5613C189.516 78.4663 190.054 79.9463 190.412 81.4358C190.6 82.2183 190.912 82.5765 191.751 82.454C192.297 82.3785 192.854 82.4351 193.561 82.4351C192.769 84.3017 191.656 85.6497 189.809 86.2625C188.658 86.649 188.366 87.1015 188.583 88.2893C188.79 89.4583 189.158 90.5896 189.13 91.8151C189.111 92.5504 189.856 92.6918 190.384 92.9086C191.515 93.3706 191.807 93.9173 191.072 94.8695C190.412 95.7368 190.525 96.4532 191.006 97.2545C191.845 98.6498 192.203 100.083 191.543 101.657C191.289 102.26 191.769 102.392 192.184 102.487C192.901 102.647 193.476 102.949 193.721 103.693V106.012C193.193 108.058 192.222 110.038 192.693 112.244C192.797 112.753 192.458 113.026 192.175 113.318C191.336 114.214 190.516 115.128 189.875 116.184C189.507 116.788 189.158 117.429 189.12 118.126C189.064 119.154 188.998 120.106 188.329 121.001C187.885 121.595 187.772 122.387 187.744 123.189C187.687 124.819 186.98 126.224 186.019 127.516C185.727 127.902 185.463 128.241 185.708 128.826C185.962 129.439 185.387 130.051 185.368 130.627C185.312 132.286 184.086 132.663 182.927 133.191C182.125 133.558 181.4 134.049 180.674 134.727C180.004 132.974 178.487 132.861 176.978 132.729C175.894 132.635 174.989 132.597 174.16 131.475C173.094 130.004 171.284 129.165 170.059 127.742C169.767 127.402 169.408 127.666 169.144 127.921C168.72 128.336 168.324 128.788 167.881 129.184C167.306 129.722 166.608 129.92 165.835 129.74C165.43 129.646 165.1 129.552 165.053 128.958C164.987 128.072 164.393 127.789 163.526 128.119C162.734 128.421 161.933 128.364 161.141 128.251C160.16 128.119 159.199 128.006 158.209 128.128C157.228 128.241 156.861 127.478 156.559 126.771C156.276 126.102 155.975 125.885 155.23 126.13C154.372 126.413 153.618 126.337 153.392 125.14C153.25 124.395 152.619 123.82 152.157 123.207C151.732 122.651 151.289 122.086 151.157 121.379C150.997 120.521 150.422 120.2 149.64 120.049C148.461 119.814 147.33 120.049 146.218 120.351C145.671 120.502 145.313 120.455 144.954 119.983C144.228 119.041 143.493 118.098 142.701 117.212C142.192 116.637 142.286 116.175 142.701 115.637C143.323 114.827 144.2 114.384 145.067 113.922C145.888 113.479 146.387 112.951 146.444 111.904C146.51 110.726 146.84 109.557 147.113 108.407C147.236 107.898 147.17 107.624 146.642 107.464C146.104 107.304 145.605 107.03 145.067 106.88C144.021 106.597 142.927 106.408 143.05 104.919C143.059 104.777 142.909 104.598 142.814 104.466C141.683 102.92 141.759 101.987 143.144 100.639C143.295 100.497 143.446 100.356 143.663 100.139C142.588 99.9507 142.541 99.4888 142.918 98.5743C143.493 97.1885 143.144 95.7556 142.654 94.3698C142.466 93.8325 142.249 93.7759 141.853 94.153C141.627 94.3698 141.4 94.5961 141.136 94.7658C140.571 95.1334 140.062 95.1994 139.637 94.4924C139.392 94.0776 139.053 93.7005 138.704 93.3611C138.487 93.1443 138.148 92.8332 137.931 92.8709C135.942 93.2574 135.094 91.4757 133.727 90.7121C133.067 90.3445 132.822 89.4206 131.945 89.3452C130.748 89.2509 129.654 89.6091 128.636 90.203C127.825 90.6838 127.043 91.2306 126.251 91.7397C124.78 92.6824 123.225 93.3706 121.443 93.3706C121.198 93.3706 120.953 93.38 120.745 93.5402C119.718 94.3133 118.502 94.6809 117.342 95.1806C116.692 95.4634 116.098 95.8122 115.579 96.3024C114.891 96.9434 114.382 96.8869 113.911 96.095C113.703 95.7462 113.619 95.4445 113.072 95.5859C111.695 95.9253 110.347 95.6896 109.056 95.19C107.793 94.6904 106.52 94.3604 105.162 94.7092C104.946 94.7658 104.804 94.8129 104.71 94.5018C104.22 92.8426 104.512 91.7679 105.964 90.797C106.586 90.3822 106.69 90.0051 106.482 89.3358C106.247 88.5722 106.209 87.9217 107.274 87.5446C108.123 87.2429 108.688 86.3379 108.999 85.4989C109.235 84.8484 109.527 84.2922 109.942 83.7832C110.715 82.8499 110.988 81.86 110.63 80.6628C110.423 79.9746 110.611 79.0131 110.197 78.5794C109.895 78.2683 108.896 78.6265 108.207 78.6925C107.387 78.7774 106.784 78.5794 106.256 77.8347C105.464 76.694 104.229 76.0152 103.06 75.3082C102.278 74.8368 101.495 74.3749 100.732 73.8753C99.9587 73.3662 99.1291 72.942 99.5722 71.6788C99.7701 71.1226 99.4307 70.3778 99.3553 69.7179C99.3176 69.388 99.1574 69.2843 98.8651 69.4445C97.8564 69.9913 97.4605 69.2748 97.1211 68.5584C96.4329 67.116 96.3575 65.5134 96.0464 63.9768C95.8484 62.9869 95.7447 61.9594 95 61.1675C95 60.9601 95 60.7433 95 60.5359C95.7165 58.3205 96.4235 56.0957 97.1494 53.8803C97.3096 53.3807 97.3002 52.6831 98.2335 53.1545C98.6294 53.3524 99.1574 53.0696 98.9123 52.3814C98.818 52.1175 98.7708 51.8441 98.6954 51.5707C98.5069 50.8071 98.752 50.3169 99.5062 49.9964C100.411 49.6193 101.269 49.1385 102.061 48.554C103.145 47.7621 103.927 46.7629 104.267 45.4525C104.38 45.0094 104.427 44.5475 105.059 44.5004C105.596 44.4627 105.964 44.6889 106.143 45.1414C106.558 46.2161 107.152 45.9804 107.802 45.4054C108.547 44.736 109.226 43.9724 109.329 42.9637C109.433 41.955 110.3 42.3227 110.772 42.0116C111.092 41.7948 111.497 42.2379 111.611 42.6149C111.799 43.256 112.091 43.2183 112.591 42.9449C113.901 42.2379 115.466 42.0116 116.494 40.7766C116.88 40.3053 117.201 40.8049 117.295 41.0312C117.785 42.1624 118.492 42.7563 119.831 42.6149C120.359 42.5584 120.934 43.0203 121.5 43.1806C122.829 43.5576 123.432 43.1051 123.46 41.7476C123.498 40.2676 123.14 38.8252 123.083 37.3546C123.027 36.1574 123.055 34.9413 124.281 34.2154C124.875 33.8571 125.318 33.7912 125.666 34.5925C126.034 35.4315 126.666 36.1291 127.533 36.5062C128.08 36.7418 128.617 36.7041 129.098 36.2799C129.579 35.8651 129.239 35.4692 129.126 35.045C129.004 34.5736 128.891 34.0928 128.853 33.6026C128.749 32.2168 129.022 31.8963 130.503 31.6701C130.352 31.2647 129.946 30.8782 130.22 30.4445C130.493 30.0203 130.993 30.2654 131.389 30.2088C132.822 30.0015 134.179 29.5395 135.028 28.3329C135.631 27.4656 136.394 27.4467 137.083 27.7767C137.922 28.182 138.534 27.9086 139.223 27.5504C140.241 27.0131 141.127 26.3532 141.532 25.2219C141.674 24.8165 141.806 24.7977 142.202 24.9956C143.842 25.8535 145.624 25.5047 147.368 25.533C147.839 25.533 147.886 25.1088 147.999 24.7977C148.442 23.5062 148.763 22.1769 148.895 20.81C148.933 20.4141 148.895 19.9898 149.545 20.2632C150.733 20.7629 151.883 20.4329 153.005 19.9898C154.372 19.4525 155.701 18.7737 157.247 19.0377C157.822 19.132 158.039 18.6229 158.067 18.2647C158.171 17.124 158.897 17.1146 159.745 17.1429C161.056 17.1806 161.056 17.1429 160.896 15.8513C160.848 15.4743 160.83 15.0783 160.839 14.7012C160.858 14.1545 161.075 13.8622 161.706 13.7491C163.714 13.372 164.412 12.5047 164.506 10.4402C164.534 9.74257 164.487 9.03553 164.45 8.33793C164.374 6.94271 164.525 6.74474 165.892 6.66933C166.373 6.64104 166.722 6.5562 166.769 6.00943H166.976L167.004 6Z" stroke="black" stroke-opacity="0.8" stroke-width="2" stroke-miterlimit="10"/>
</svg>
