<svg width="287" height="140" viewBox="0 0 287 140" fill="none" xmlns="http://www.w3.org/2000/svg">
<path d="M119.442 123.191C107.771 120.981 116.257 115.306 110.115 112.194C107.827 113.392 107.389 109.932 105.522 109.391C103.968 109.331 102.221 109.078 102.878 107.056C102.157 105.807 100.749 104.605 100.685 102.845C98.8259 101.403 95.9199 100.463 94.6451 98.2007C94.2416 97.823 94.4176 97.8058 93.9497 98.1278C93.4303 98.6557 92.8037 98.0505 92.2499 98.4239C91.4902 99.0034 91.1511 98.0033 90.7948 97.5096C89.5672 97.6212 89.0478 100.334 87.2879 100.175C85.3177 99.1236 88.0992 95.4879 86.5367 93.5435C85.6053 91.2556 89.52 91.496 87.4553 89.3112C82.7465 87.1521 85.7212 91.247 83.5149 92.1098C82.1928 92.5433 80.7978 91.3458 79.5358 91.8136C78.7074 90.7362 78.8619 88.1908 79.8449 87.1821C80.6304 85.8772 80.9609 84.1002 81.8194 82.8854C81.5919 82.7223 80.6347 82.821 80.7119 82.233C82.4675 80.4945 81.4889 78.3441 82.8667 76.5284C83.5492 75.8373 84.5236 76.318 84.9786 75.8459C85.2705 74.2276 88.2237 72.3776 86.056 71.2573C85.425 70.9826 84.5236 72.0471 83.8797 71.7209C82.7723 71.4247 81.1541 67.9994 82.9483 67.5744C89.2796 69.5146 83.2874 64.6041 87.0776 62.7927C88.743 62.4707 90.7562 62.1231 92.031 63.4837C92.9539 63.986 93.8295 63.179 94.3575 62.5652C93.7136 60.9169 91.1511 61.3805 91.5932 59.23C91.9023 56.6416 93.0998 56.0665 90.4471 54.401C89.5886 51.8084 93.7952 52.5896 94.4047 54.4268C94.5249 53.8773 93.4861 53.0661 93.9841 52.6282C95.9028 49.4948 90.4514 49.2759 88.3911 48.4002C87.0561 48.3916 88.2451 46.7562 87.3952 46.357C86.7557 43.6185 82.4718 44.4212 81.9181 41.5495C79.5873 35.3084 82.7594 35.5573 86.7084 32.0848C87.7472 30.5481 89.9878 32.4239 92.1169 30.9387C96.156 24.4529 94.3489 31.7114 100.994 24.44C102.157 23.1995 101.118 20.3193 103.311 20.1819C106.664 19.0101 108.613 23.5987 111.042 22.1479C111.866 21.6027 112.789 20.4953 113.888 21.1263C112.223 13.7691 126.928 15.2886 127.757 19.7012C126.134 21.7272 126.98 22.8218 128.941 23.9721C128.748 26.6978 130.263 26.9597 130.603 29.4621C130.367 31.2006 130.886 33.1836 132.985 31.9474C135.543 30.7885 138.007 34.3941 140.737 32.9905C141.488 32.587 142.501 33.0892 143.287 33.3596C144.471 33.7073 146.12 32.0977 147.025 33.7288C148.498 34.8791 150.429 34.3641 150.155 37.0683C154.056 40.9915 154.932 43.4468 149.691 46.8893C151.361 47.6877 153.691 47.6018 154.331 50.9671C154.584 52.2505 152.807 53.7743 154.301 54.8775C169.063 52.0874 160.774 60.2215 171.767 58.4316C173.711 59.0712 177.214 60.1185 177.626 62.3935C178.72 63.7155 180.137 64.7028 181.953 63.8228C187.486 65.7888 184.185 63.355 187.091 64.0031C188.529 66.1021 187.996 65.2951 189.022 63.4623C189.426 62.6596 191.323 61.2131 190.19 60.4533C186.245 58.7836 192.993 51.5294 195.422 55.7617C201.672 56.2081 200.878 56.4142 204.084 61.9814C205.857 61.8998 207.183 60.8439 207.372 63.7542C207.724 65.8317 211.038 69.9395 207.059 69.6992C202.895 69.6219 200.371 70.9354 198.818 74.6526C192.563 73.8885 198.019 76.0004 191.005 77.2495C195.602 79.0866 188.597 81.2243 190.593 81.5848C192.173 81.705 191.568 83.1988 191.658 84.1688C191.902 85.3278 194.426 84.2976 194.293 86.0918C193.684 91.9124 187.305 88.5342 185.447 92.2772C189.748 94.286 184.275 95.1617 183.206 95.2733C182.721 96.6683 180.54 97.0332 179.446 95.6081C178.437 94.0929 180.304 92.5648 178.982 91.1741C178.982 92.5305 177.497 92.818 176.75 93.5392C175.84 94.2388 176.48 95.6124 175.098 96.0331C171.81 97.5826 176.634 98.1406 177.428 99.4884C178.948 101.446 176.463 102.605 175.252 103.789C178.961 105.386 172.282 108.048 170.844 108.816C168.762 106.064 168.509 107.618 165.474 108.331C162.877 109.365 160.194 107.91 158.065 109.524C156.391 109.743 154.305 108.181 154.219 106.472C153.065 106.103 151.421 105.691 151.15 103.995C150.721 102.669 151.889 100.235 151.498 99.9563C148.377 97.8015 147.983 103.146 144.768 102.742C145.995 104.961 147.27 121.474 142.531 117.401C141.243 117.182 141.849 119.504 139.557 116.856C136.801 115.924 138.209 114.173 138.544 112.443C137.565 109.473 135.221 113.95 133.298 111.997C130.757 112.829 130.461 111.056 128.851 109.443C126.701 109.443 124.426 109.443 122.468 110.37C114.746 113.941 127.014 114.928 126.057 118.894C125.632 120.929 123.653 120.474 122.559 119.903C121.936 120.616 121.189 120.444 120.455 120.152C120.279 121.096 120.752 122.942 119.429 123.183L119.442 123.191Z" stroke="black" stroke-opacity="0.8" stroke-width="2" stroke-linecap="round" stroke-linejoin="round"/>
</svg>
