<svg width="50" height="51" viewBox="0 0 50 51" fill="none" xmlns="http://www.w3.org/2000/svg">
<path d="M25.5 11.4768H33.9345C34.2662 11.4768 34.5387 11.2039 34.5387 10.8627V4.61366C34.5387 4.05177 35.2218 3.78688 35.5891 4.20428L47.846 18.079C48.0513 18.3118 48.0513 18.665 47.846 18.8978L35.5891 32.7725C35.2218 33.1899 34.5387 32.925 34.5387 32.3631V26.1101C34.5387 25.7729 34.2702 25.496 33.9345 25.496H17.0655C16.7338 25.496 16.4613 25.2231 16.4613 24.8819V18.6289C16.4613 18.067 15.7782 17.8021 15.4109 18.2195L3.154 32.1022C2.94867 32.335 2.94867 32.6882 3.154 32.921L15.4109 46.7957C15.7782 47.2131 16.4613 46.9482 16.4613 46.3863V40.1373C16.4613 39.8002 16.7298 39.5232 17.0655 39.5232H25.5" stroke="url(#paint0_linear_693_2995)" stroke-width="2" stroke-miterlimit="10" stroke-linecap="round"/>
<defs>
<linearGradient id="paint0_linear_693_2995" x1="1.41549" y1="23.5454" x2="48" y2="23.5454" gradientUnits="userSpaceOnUse">
<stop stop-color="#EC301C"/>
<stop offset="0.526042" stop-color="#F37920"/>
<stop offset="1" stop-color="#FCAD13"/>
</linearGradient>
</defs>
</svg>
