<svg width="50" height="51" viewBox="0 0 50 51" fill="none" xmlns="http://www.w3.org/2000/svg">
<path d="M31.5964 16.5705C32.0341 16.9073 32.662 16.8254 32.9987 16.3877C33.3355 15.95 33.2537 15.3221 32.816 14.9854L31.5964 16.5705ZM22.1523 8.04245L21.5383 8.83181L21.5425 8.83501L22.1523 8.04245ZM21.9057 8.04245L22.5156 8.83494L22.5196 8.8318L21.9057 8.04245ZM3.15822 22.4704L3.76742 23.2634L3.76811 23.2629L3.15822 22.4704ZM29.6978 37.9469C30.25 37.9469 30.6978 37.4992 30.6978 36.9469C30.6978 36.3946 30.25 35.9469 29.6978 35.9469V37.9469ZM38.9068 39.7626L38.1194 40.379C38.3062 40.6177 38.5912 40.7587 38.8943 40.7625C39.1974 40.7662 39.4858 40.6323 39.6786 40.3984L38.9068 39.7626ZM44.6394 37.7222C44.1176 37.5413 43.5479 37.8176 43.3669 38.3393C43.1859 38.8611 43.4622 39.4308 43.984 39.6118L44.6394 37.7222ZM34.3282 39.4536C34.8586 39.2997 35.1639 38.745 35.01 38.2145C34.8561 37.6841 34.3014 37.3789 33.771 37.5328L34.3282 39.4536ZM32.816 14.9854L22.7621 7.24989L21.5425 8.83501L31.5964 16.5705L32.816 14.9854ZM22.7662 7.25309C22.3323 6.91563 21.7256 6.91563 21.2917 7.25309L22.5196 8.8318C22.2313 9.05607 21.8267 9.05607 21.5383 8.8318L22.7662 7.25309ZM21.2958 7.24996L2.54833 21.6779L3.76811 23.2629L22.5156 8.83493L21.2958 7.24996ZM2.54902 21.6774C1.48564 22.4943 2.06445 24.194 3.40482 24.194V22.194C3.97305 22.194 4.22037 22.9155 3.76742 23.2634L2.54902 21.6774ZM3.40482 24.194H6.78441V22.194H3.40482V24.194ZM6.78441 24.194C6.45447 24.194 6.18867 23.9282 6.18867 23.5983H8.18867C8.18867 22.8237 7.55904 22.194 6.78441 22.194V24.194ZM6.18867 23.5983V36.5426H8.18867V23.5983H6.18867ZM6.18867 36.5426C6.18867 37.3173 6.8183 37.9469 7.59293 37.9469V35.9469C7.92287 35.9469 8.18867 36.2127 8.18867 36.5426H6.18867ZM7.59293 37.9469H17.9217V35.9469H7.59293V37.9469ZM17.9217 37.9469C18.6964 37.9469 19.326 37.3173 19.326 36.5426H17.326C17.326 36.2127 17.5918 35.9469 17.9217 35.9469V37.9469ZM19.326 36.5426V29.2276H17.326V36.5426H19.326ZM19.326 29.2276C19.326 29.5575 19.0602 29.8233 18.7302 29.8233V27.8233C17.9556 27.8233 17.326 28.453 17.326 29.2276H19.326ZM18.7302 29.8233H25.3277V27.8233H18.7302V29.8233ZM25.3277 29.8233C24.9978 29.8233 24.732 29.5575 24.732 29.2276H26.732C26.732 28.453 26.1024 27.8233 25.3277 27.8233V29.8233ZM24.732 29.2276V36.5426H26.732V29.2276H24.732ZM24.732 36.5426C24.732 37.3173 25.3616 37.9469 26.1362 37.9469V35.9469C26.4662 35.9469 26.732 36.2127 26.732 36.5426H24.732ZM26.1362 37.9469H29.6978V35.9469H26.1362V37.9469ZM45.5836 25.6924C45.5836 26.6544 45.1821 27.9642 44.478 29.4726C43.7864 30.9542 42.8549 32.5201 41.9092 33.9607C40.9657 35.398 40.0203 36.692 39.3098 37.6276C38.955 38.0949 38.6597 38.4716 38.4538 38.7306C38.3509 38.8601 38.2703 38.9601 38.2159 39.0273C38.1887 39.0609 38.1681 39.0862 38.1544 39.1029C38.1476 39.1113 38.1425 39.1175 38.1393 39.1215C38.1376 39.1234 38.1364 39.1249 38.1357 39.1258C38.1354 39.1262 38.1351 39.1265 38.135 39.1266C38.1349 39.1267 38.1349 39.1267 38.1349 39.1268C38.1349 39.1268 38.1349 39.1267 38.9068 39.7626C39.6786 40.3984 39.6787 40.3983 39.6788 40.3981C39.6789 40.398 39.6791 40.3978 39.6792 40.3976C39.6796 40.3972 39.68 40.3966 39.6806 40.396C39.6817 40.3946 39.6833 40.3926 39.6854 40.3901C39.6895 40.3851 39.6954 40.3778 39.7031 40.3684C39.7185 40.3496 39.741 40.322 39.77 40.2862C39.8281 40.2145 39.9124 40.1097 40.0194 39.9751C40.2334 39.706 40.5378 39.3176 40.9027 38.8371C41.6317 37.8771 42.6055 36.5445 43.5812 35.0583C44.5547 33.5753 45.5424 31.9206 46.2902 30.3186C47.0256 28.7433 47.5836 27.1063 47.5836 25.6924H45.5836ZM38.9068 39.7626C39.6941 39.1461 39.6942 39.1461 39.6942 39.1461C39.6941 39.1461 39.6941 39.1461 39.694 39.146C39.6939 39.1458 39.6936 39.1454 39.6932 39.145C39.6925 39.144 39.6913 39.1424 39.6896 39.1403C39.6863 39.136 39.6811 39.1294 39.6742 39.1205C39.6604 39.1027 39.6396 39.0759 39.6122 39.0404C39.5575 38.9695 39.4766 38.8642 39.3733 38.7282C39.1667 38.4561 38.8706 38.0615 38.5149 37.5742C37.8029 36.5988 36.8553 35.2567 35.9094 33.7859C34.9614 32.3116 34.027 30.7264 33.3331 29.2619C32.6219 27.7609 32.2299 26.5209 32.2299 25.6924H30.2299C30.2299 26.9962 30.7975 28.5812 31.5257 30.1183C32.2712 31.6918 33.2561 33.3575 34.2272 34.8677C35.2006 36.3813 36.1722 37.7571 36.8996 38.7535C37.2636 39.2521 37.5673 39.6569 37.7805 39.9377C37.8871 40.0781 37.9712 40.1876 38.0289 40.2624C38.0577 40.2998 38.08 40.3285 38.0953 40.3481C38.1029 40.3579 38.1087 40.3654 38.1128 40.3706C38.1148 40.3732 38.1164 40.3752 38.1175 40.3766C38.118 40.3773 38.1185 40.3778 38.1188 40.3782C38.1189 40.3784 38.1191 40.3786 38.1192 40.3787C38.1193 40.3789 38.1194 40.379 38.9068 39.7626ZM32.2299 25.6924C32.2299 21.9818 35.2163 19.0155 38.9068 19.0155V17.0155C34.1159 17.0155 30.2299 20.8731 30.2299 25.6924H32.2299ZM38.9068 19.0155C42.5951 19.0155 45.5836 22.004 45.5836 25.6924H47.5836C47.5836 20.8994 43.6997 17.0155 38.9068 17.0155V19.0155ZM40.7103 25.6924C40.7103 26.6884 39.9028 27.4959 38.9068 27.4959V29.4959C41.0074 29.4959 42.7103 27.793 42.7103 25.6924H40.7103ZM38.9068 27.4959C37.9107 27.4959 37.1032 26.6884 37.1032 25.6924H35.1032C35.1032 27.793 36.8061 29.4959 38.9068 29.4959V27.4959ZM37.1032 25.6924C37.1032 24.6963 37.9107 23.8888 38.9068 23.8888V21.8888C36.8061 21.8888 35.1032 23.5917 35.1032 25.6924H37.1032ZM38.9068 23.8888C39.9028 23.8888 40.7103 24.6963 40.7103 25.6924H42.7103C42.7103 23.5917 41.0074 21.8888 38.9068 21.8888V23.8888ZM43.984 39.6118C44.7411 39.8744 45.2887 40.1747 45.6275 40.462C45.9703 40.7528 46 40.938 46 40.9955H48C48 40.1293 47.5102 39.4363 46.9212 38.9368C46.3282 38.4338 45.5316 38.0317 44.6394 37.7222L43.984 39.6118ZM46 40.9955C46 41.0511 45.9748 41.2146 45.6894 41.4755C45.4034 41.737 44.934 42.0184 44.2694 42.2754C42.9467 42.7868 41.0512 43.1245 38.9068 43.1245V45.1245C41.2334 45.1245 43.3846 44.7618 44.9907 44.1408C45.7905 43.8316 46.5061 43.4388 47.039 42.9515C47.5724 42.4638 48 41.8041 48 40.9955H46ZM38.9068 43.1245C36.7623 43.1245 34.8669 42.7868 33.5441 42.2754C32.8795 42.0184 32.4101 41.737 32.1241 41.4755C31.8387 41.2146 31.8135 41.0511 31.8135 40.9955H29.8135C29.8135 41.8041 30.2411 42.4638 30.7746 42.9515C31.3074 43.4388 32.0231 43.8316 32.8228 44.1408C34.4289 44.7618 36.5801 45.1245 38.9068 45.1245V43.1245ZM31.8135 40.9955C31.8135 40.9318 31.8533 40.7088 32.2983 40.3719C32.73 40.0451 33.4132 39.719 34.3282 39.4536L33.771 37.5328C32.7213 37.8373 31.7864 38.251 31.0913 38.7772C30.4094 39.2934 29.8135 40.0366 29.8135 40.9955H31.8135Z" fill="url(#paint0_linear_741_6107)"/>
<defs>
<linearGradient id="paint0_linear_741_6107" x1="1.4507" y1="24.4202" x2="47" y2="24.4202" gradientUnits="userSpaceOnUse">
<stop stop-color="#EC301C"/>
<stop offset="0.526042" stop-color="#F37920"/>
<stop offset="1" stop-color="#FCAD13"/>
</linearGradient>
</defs>
</svg>
