<svg width="50" height="51" viewBox="0 0 50 51" fill="none" xmlns="http://www.w3.org/2000/svg">
<path d="M22.252 33.0663H33.9286C36.6272 33.0663 38.8149 30.9789 38.8149 28.4025C38.8149 25.8262 36.6272 23.7388 33.9286 23.7388C33.4569 23.7388 33.0025 23.803 32.5715 23.9221C32.559 20.8725 30.0829 18.4043 27.0302 18.4043C23.9774 18.4043 21.5907 20.7863 21.4935 23.7607C21.3509 23.7466 21.2052 23.7388 21.0579 23.7388C20.0424 23.7388 19.1068 24.0945 18.3577 24.6931M32.6796 17.7477C32.8395 17.4828 33.0244 17.2337 33.2328 17.008C34.0697 16.0959 35.2717 15.5255 36.6069 15.5255C39.1362 15.5255 41.1875 17.5769 41.1875 20.1062C41.1875 20.9368 40.9666 21.714 40.5811 22.3863C40.357 22.7766 40.0765 23.1307 39.7505 23.4379M36.8498 12.327V9.80393M31.4557 14.5617L29.6708 12.7768M42.2422 25.3482L44.0272 27.1332M44.4769 19.9542H47M42.2422 14.5617L44.0272 12.7768M11.232 15.817L11.0753 30.4288M15.1154 26.569C15.0135 26.5141 14.9477 26.4091 14.9477 26.2932V12.7172C14.9477 10.6643 13.2834 9 11.2305 9C9.17754 9 7.51326 10.6643 7.51326 12.7172V26.2932C7.51326 26.4091 7.44901 26.5141 7.34558 26.569C4.68304 27.9966 2.89652 30.8457 3.00465 34.1021C3.14569 38.3819 6.61687 41.8782 10.8967 42.0474C15.5949 42.2339 19.461 38.4807 19.461 33.8232C19.461 30.6827 17.7011 27.9559 15.1154 26.5674V26.569ZM14.8207 34.0175C14.8207 35.9995 13.214 37.6062 11.232 37.6062C9.25005 37.6062 7.64333 35.9995 7.64333 34.0175C7.64333 32.0355 9.25005 30.4288 11.232 30.4288C13.214 30.4288 14.8207 32.0355 14.8207 34.0175Z" stroke="url(#paint0_linear_802_7047)" stroke-width="2" stroke-linecap="round" stroke-linejoin="round"/>
<defs>
<linearGradient id="paint0_linear_802_7047" x1="1.4507" y1="24.0246" x2="47" y2="24.0246" gradientUnits="userSpaceOnUse">
<stop stop-color="#EC301C"/>
<stop offset="0.526042" stop-color="#F37920"/>
<stop offset="1" stop-color="#FCAD13"/>
</linearGradient>
</defs>
</svg>
