<svg width="50" height="51" viewBox="0 0 50 51" fill="none" xmlns="http://www.w3.org/2000/svg">
<path d="M18.3394 17.6705C18.3394 21.9069 14.9051 25.3411 10.6688 25.3411C6.43251 25.3411 3 21.9051 3 17.6705C3 13.436 6.43424 10 10.6705 10C13.1647 10 15.3812 11.1902 16.7818 13.0341M10.6705 14.727V18.1414H14.4601M17.2303 10.0586L17.1337 13.3825L13.8098 13.2859M14.4515 28.4442C14.3221 28.953 14.2445 29.4825 14.2273 30.0276C14.0375 30.0086 13.8443 29.9983 13.6477 29.9983C10.3721 29.9983 7.71583 32.7788 7.71583 36.2078C7.71583 39.6369 10.3721 42.4174 13.6477 42.4174H30.7844C34.3773 42.4174 37.2889 39.6369 37.2889 36.2078C37.2889 32.7788 34.3773 29.9983 30.7844 29.9983C30.1565 29.9983 29.5511 30.0845 28.9767 30.2432C28.9595 26.1828 25.6632 22.8969 21.5994 22.8969M27.2829 20.8288C27.5347 20.4097 27.8279 20.0181 28.1574 19.6593C29.4787 18.2191 31.3777 17.3169 33.4856 17.3169C37.4804 17.3169 40.718 20.5545 40.718 24.5494C40.718 25.8603 40.3696 27.0884 39.7607 28.1492C39.4053 28.7667 38.9638 29.3256 38.4498 29.8103M33.4856 14.395V11.0349M26.3049 17.3704L23.9297 14.9935M40.6662 31.7301L43.0414 34.1069M43.6399 24.5511H47M40.6662 17.3704L43.0414 14.9935" stroke="url(#paint0_linear_792_7003)" stroke-width="2" stroke-linecap="round" stroke-linejoin="round"/>
<defs>
<linearGradient id="paint0_linear_792_7003" x1="1.4507" y1="24.7352" x2="47" y2="24.7352" gradientUnits="userSpaceOnUse">
<stop stop-color="#EC301C"/>
<stop offset="0.526042" stop-color="#F37920"/>
<stop offset="1" stop-color="#FCAD13"/>
</linearGradient>
</defs>
</svg>
