<svg width="48" height="56" viewBox="0 0 48 56" fill="none" xmlns="http://www.w3.org/2000/svg">
<g clip-path="url(#clip0_438_1248)">
<path d="M47.5112 12.8633L35.1742 0.49019C34.8539 0.169031 34.4326 0 33.9775 0H4.83708C2.17416 0 0 2.1805 0 4.85119V51.1657C0 53.8364 2.17416 56.0169 4.83708 56.0169H43.1798C45.8427 56.0169 48.0169 53.8364 48.0169 51.1657V14.0634C48.0169 13.607 47.8315 13.1844 47.5281 12.8633H47.5112ZM35.7472 5.84848L42.2022 12.3224H35.7472V5.84848ZM43.1629 52.6194H4.83708C4.02809 52.6194 3.37079 51.9602 3.37079 51.1488V4.85119C3.37079 4.03984 4.02809 3.38062 4.83708 3.38062H32.3764V14.0127C32.3764 14.9423 33.1348 15.703 34.0618 15.703H44.6292V51.1488C44.6292 51.9602 43.9719 52.6194 43.1629 52.6194Z" fill="url(#paint0_linear_438_1248)"/>
</g>
<defs>
<linearGradient id="paint0_linear_438_1248" x1="-1.69073" y1="25.4622" x2="48.0169" y2="25.4622" gradientUnits="userSpaceOnUse">
<stop stop-color="#EC301C"/>
<stop offset="0.526042" stop-color="#F37920"/>
<stop offset="1" stop-color="#FCAD13"/>
</linearGradient>
<clipPath id="clip0_438_1248">
<rect width="48" height="56" fill="white"/>
</clipPath>
</defs>
</svg>
